<svg width="41" height="40" viewBox="0 0 41 40" fill="none" xmlns="http://www.w3.org/2000/svg">
<circle cx="20.5" cy="20" r="20" fill="#EAF2FE"/>
<path d="M12.5907 22.6467L13.4886 15.8785L5.6875 10.4584L12.8152 12.8735L14.4989 10.2899L20.6444 6.47046L34.1981 13.9407L34.8996 25.3427L28.8664 33.7397L24.0959 34.4699L26.5654 29.9484V25.5954L24.7694 22.1973L22.9454 20.9897L20.1392 23.8823V26.9434L17.9505 28.9935L15.1723 29.3306L13.9376 30.0327L11.9172 29.3867L11.0753 26.3537L12.5907 24.2194V22.6467Z" fill="white"/>
<path d="M25.0501 10.4019C23.5628 10.093 21.9352 10.1772 21.9352 10.1772C21.9352 10.1772 21.4021 12.6486 18.0908 13.2945C18.1188 13.2945 22.4684 14.783 25.0501 10.4019Z" fill="#94A6C3"/>
<path d="M26.3971 32.8126C28.193 31.4084 29.54 29.4707 30.1573 27.2802C30.1854 27.1959 30.438 27.0555 30.6063 26.9431C30.8869 26.7746 31.1676 26.6342 31.2237 26.4096C31.3359 25.7636 31.3921 25.0896 31.3921 24.4156C31.3921 24.1629 31.1395 23.9101 30.8869 23.6574C30.6906 23.4889 30.4941 23.2922 30.4941 23.1518C30.2135 20.5962 29.0349 18.2091 27.1548 16.4679L26.9583 16.6645C28.7824 18.3776 29.961 20.7086 30.2135 23.1799C30.2416 23.4046 30.466 23.6293 30.6906 23.8539C30.8869 24.0224 31.1115 24.2752 31.1115 24.3875C31.1115 25.0335 31.0554 25.6794 30.9431 26.3253C30.915 26.4376 30.6625 26.55 30.466 26.6623C30.1854 26.8027 29.9329 26.9431 29.8768 27.1678C29.2033 29.5549 27.6599 31.6331 25.6114 32.9811C25.9762 32.1948 27.1267 29.6391 27.7441 28.3473L27.6318 24.1909L24.068 20.7367L22.0476 21.0175L19.8307 24.6122C19.8307 24.6122 20.869 25.9321 19.4098 27.4767C17.9786 28.9932 16.8561 29.3303 16.8561 29.3303L15.8179 28.7686C16.1265 28.3754 16.7439 27.7856 17.2209 27.3925C18.0347 26.7184 18.8485 26.6623 18.8485 25.9321C18.8766 24.4156 17.249 24.8369 17.249 24.8369L16.6597 25.3985L16.4072 27.4767L15.1725 29.0213L15.0321 28.9932L13.0117 28.5439C13.0117 28.5439 14.2464 27.898 14.4429 27.1678C14.6393 26.4657 14.05 24.1348 14.0219 23.9943C14.05 24.0224 14.6112 24.4998 14.8638 25.2862C15.3127 24.0505 15.9021 22.871 16.0704 22.7587C16.2388 22.6463 18.5118 21.4388 18.5118 21.4388L17.7541 23.4327L18.3154 23.1237L19.6623 19.8099C19.6623 19.8099 20.9812 19.164 21.9633 19.164C23.7313 19.1359 26.341 16.9735 25.1624 13.0979C25.4991 13.2383 31.3359 16.159 32.3462 21.8881C33.1038 26.2972 30.6063 30.4255 26.3971 32.8126Z" fill="#94A6C3"/>
<path d="M19.7183 11.0198C20.3637 10.2616 20.1111 9.13818 20.1111 9.13818L18.231 11.9185C18.2029 11.9185 18.9045 11.9465 19.7183 11.0198Z" fill="#0A192B"/>
<path d="M13.4044 26.2132L13.6288 25.0898C13.6288 25.0898 12.7028 26.7186 12.6187 26.9433C12.5344 27.1961 12.6748 27.6454 13.0396 27.6173C13.4044 27.5892 13.8534 27.0557 13.8534 26.6625C13.8534 26.157 13.4044 26.2132 13.4044 26.2132Z" fill="#0A192B"/>
<path d="M30.0731 8.35192C30.0731 8.35192 31.4762 8.40809 32.9354 8.57659C29.6522 5.9929 26.5374 5.23464 24.0118 5.23464C20.5322 5.23464 18.175 6.6669 18.0347 6.75116L19.1291 5.00997C19.1291 5.00997 14.7515 4.58872 13.2081 9.22251C12.8152 8.23959 12.4504 6.80732 12.4504 6.80732C12.4504 6.80732 10.1774 8.80126 11.2438 12.1151C8.63404 11.1603 4.90184 9.84036 4.76153 9.81227C4.5651 9.78417 4.50898 9.86845 4.50898 9.86845C4.50898 9.86845 4.45286 9.95273 4.62123 10.0931C4.9299 10.3459 10.8229 14.6988 12.1137 15.5414C11.833 16.5523 11.833 17.0298 12.1137 17.5072C12.5065 18.1531 12.5346 18.4901 12.4785 18.9675C12.4224 19.445 11.9172 23.5733 11.805 24.0788C11.6928 24.5843 10.5142 26.3816 10.5703 26.9152C10.6264 27.4488 11.356 29.7235 12.0015 29.9763C12.4785 30.1449 13.6571 30.5099 14.4428 30.5099C14.7234 30.5099 14.9759 30.4537 15.0882 30.3414C15.5653 29.9202 15.7055 29.8359 16.0423 29.8359C16.0704 29.8359 16.0984 29.8359 16.1265 29.8359C16.2668 29.8359 16.4352 29.864 16.6316 29.864C17.0806 29.864 17.6699 29.7797 18.0908 29.3866C18.7082 28.7688 19.7745 27.9262 20.1113 27.533C20.5322 26.9995 20.7566 26.2693 20.6444 25.5391C20.5603 24.8651 20.9251 24.2754 21.346 23.6856C21.8791 22.9835 22.8613 21.7197 22.8613 21.7197C24.7976 23.1801 26.0042 25.3987 26.0042 27.8701C26.0042 32.2511 22.1878 35.7896 17.4735 35.7896C16.7439 35.7896 16.0423 35.7054 15.3407 35.5369C17.5015 36.2951 19.3255 36.5479 20.8128 36.5479C23.9837 36.5479 25.6675 35.3965 25.6675 35.3965C25.6675 35.3965 25.0781 36.1547 24.1241 37.0253C24.1521 37.0253 24.1521 37.0253 24.1521 37.0253C29.3996 36.2951 31.9533 31.9702 31.9533 31.9702C31.9533 31.9702 31.7568 33.3744 31.5043 34.3293C38.4916 29.0776 37.3131 22.5061 37.285 22.2814C37.3411 22.3657 38.0427 23.2081 38.4074 23.6575C39.5299 12.087 30.0731 8.35192 30.0731 8.35192ZM19.3255 26.8309C19.2133 26.9714 18.7362 27.3926 18.3995 27.7015C18.0627 28.0105 17.6979 28.3194 17.4174 28.6002C17.3051 28.7126 17.0806 28.7688 16.7439 28.7688C16.6316 28.7688 16.5193 28.7688 16.4352 28.7688C16.3791 28.7688 16.3229 28.7688 16.2668 28.7688C16.2107 28.7688 16.1826 28.7688 16.1545 28.7688C16.0704 28.7688 15.9862 28.7688 15.902 28.7688C16.3229 28.2071 17.5576 26.9152 17.9786 26.6344C18.4836 26.2974 18.7362 25.9604 18.4275 25.3706C18.1189 24.7808 17.3051 24.9213 17.3051 24.9213C17.3051 24.9213 17.7821 24.7247 18.2031 24.7247C17.6699 24.5842 16.9964 24.7247 16.6878 25.0336C16.351 25.3425 16.4071 26.4378 16.2668 27.1399C16.1265 27.8701 15.6494 28.2351 14.9198 28.9091C14.527 29.2742 14.2464 29.3866 14.0219 29.3866C13.5449 29.3023 12.9836 29.1619 12.5907 29.0215C12.3101 28.6564 11.8892 27.4488 11.7769 26.9433C11.8611 26.6625 12.1978 26.0727 12.3663 25.7357C12.703 25.0898 12.8994 24.7247 12.9555 24.3877C13.0678 23.9102 13.4325 20.9615 13.5729 19.7258C13.9377 20.2032 14.4428 20.9895 14.3306 21.4951C15.1444 20.3436 14.555 19.2203 14.2744 18.7709C14.0219 18.3216 13.6851 17.4229 13.9658 16.4681C14.2464 15.5133 15.2566 12.8734 15.2566 12.8734C15.2566 12.8734 15.5933 13.4632 16.0704 13.3508C16.5474 13.2385 20.3918 7.45325 20.3918 7.45325C20.3918 7.45325 21.4302 9.72799 20.3357 11.385C19.2133 13.0419 18.1189 13.3508 18.1189 13.3508C18.1189 13.3508 19.6622 13.6316 21.0934 12.5926C21.6827 13.9687 22.2439 15.4009 22.272 15.5975C22.1878 15.7941 21.0653 18.4901 20.9531 18.6586C20.897 18.7148 20.5041 18.8271 20.2235 18.8833C19.7465 19.0237 19.4658 19.108 19.3536 19.1922C19.1571 19.3607 18.2592 21.8321 17.8383 23.0397C17.3331 23.1801 16.828 23.4609 16.4632 24.0226C16.6597 23.8822 17.277 23.7979 17.726 23.7418C18.1189 23.7137 19.3255 24.3596 19.6342 25.5672C19.6342 25.5953 19.6342 25.5953 19.6342 25.6234C19.6903 26.0727 19.55 26.494 19.3255 26.8309ZM16.6878 27.168C16.9403 26.8028 16.9122 26.185 16.9403 25.9884C16.9683 25.7919 17.0245 25.4268 17.2489 25.3706C17.4735 25.3144 18.0066 25.3987 18.0066 25.7919C18.0066 26.1569 17.6138 26.2412 17.3331 26.494C17.1367 26.6905 16.7439 27.1118 16.6878 27.168ZM27.8843 21.804C28.1649 20.3717 28.193 19.1361 28.1088 18.125C29.2032 19.5854 29.8767 21.3547 30.0731 23.1801C30.1012 23.4048 30.3257 23.6295 30.5501 23.8541C30.7466 24.0226 30.9711 24.2473 30.9711 24.3877C30.9711 25.0336 30.9149 25.6795 30.8027 26.3255C30.7747 26.4097 30.5221 26.5502 30.3257 26.6625C30.0451 26.8029 29.7925 26.9433 29.7364 27.168C29.1191 29.3304 27.8001 31.2401 26.0323 32.5881C28.642 29.864 29.9048 25.3706 27.8843 21.804ZM26.1164 32.8409C27.9405 31.4367 29.3435 29.4709 29.9609 27.2522C29.9889 27.168 30.2415 27.0275 30.4099 26.9152C30.6905 26.7748 30.9711 26.6063 31.0272 26.3816C31.1395 25.7357 31.1956 25.0617 31.1956 24.3877C31.1956 24.1349 30.943 23.8822 30.6905 23.6295C30.5501 23.4609 30.3257 23.2643 30.3257 23.1239C30.1012 21.0738 29.2874 19.1361 28.0246 17.5353C27.4634 14.1653 25.2185 13.1261 25.1623 13.098C25.2185 13.1823 26.6777 15.2886 25.6675 17.76C24.6292 20.2594 21.9633 19.8662 21.7389 19.8943C21.5143 19.8943 20.6444 21.0176 19.55 23.0958C19.4097 23.0397 18.8204 22.8993 18.1469 23.0116C18.6521 21.6074 19.4097 19.6134 19.55 19.445C19.6061 19.3888 20.027 19.2765 20.3077 19.1922C20.8408 19.0518 21.0934 18.9675 21.1776 18.8552C21.2337 18.7709 21.5143 18.125 21.795 17.451C22.0475 17.451 22.6929 17.3948 22.749 17.3667C22.8052 17.3106 23.3383 15.9345 23.3383 15.766C23.3383 15.6256 22.2439 12.9015 21.823 11.8624C22.0194 11.6377 22.2159 11.3569 22.4123 11.048C28.1649 11.6658 32.6548 16.5523 32.6548 22.478C32.6548 27.0275 29.9889 30.9874 26.1164 32.8409Z" fill="#0A192B"/>
<path d="M18.6521 17.6755C19.1853 17.0577 18.9047 15.9063 17.9225 15.7097C18.175 15.1199 18.5399 13.9404 18.5399 13.9404C18.5399 13.9404 15.6776 18.4338 15.425 18.518C15.1724 18.6023 14.9199 17.6193 14.9199 17.6193C14.3867 19.6695 15.8179 19.9503 15.9862 19.3044C16.7719 19.1078 18.1189 18.2653 18.6521 17.6755Z" fill="#0A192B"/>
<path d="M16.2109 18.7711L17.6701 16.2717C17.6701 16.2717 18.5119 16.693 18.091 17.367C17.5579 18.1533 16.2109 18.7711 16.2109 18.7711Z" fill="#FFD923"/>
<path d="M34.2542 30.3415C33.8333 30.9032 33.3562 31.493 32.7949 32.0547C36.4149 25.0899 32.9633 18.7149 32.823 18.4622C33.0756 18.7149 33.3281 18.9958 33.5526 19.2485C36.3307 22.3377 36.6675 26.9715 34.2542 30.3415Z" fill="#D82122"/>
<path d="M37.6218 21.3827C36.359 17.9845 34.5631 15.0919 30.6064 12.4801C26.79 9.95264 22.693 10.1492 22.4685 10.1773C22.4404 10.1773 22.4124 10.1773 22.4124 10.1773C22.5527 10.1211 22.693 10.093 22.8333 10.0649C23.7032 9.78409 24.8257 9.55945 25.9481 9.41903C28.9226 8.99778 31.9253 10.0088 33.9737 12.1712C34.0018 12.1993 34.0018 12.1993 34.0298 12.2274C36.359 14.6988 37.5656 17.788 37.6218 21.3827Z" fill="#D82122"/>
<path d="M29.7082 7.48158C25.5271 6.69524 22.8331 7.08841 20.8969 7.81859C20.8408 7.59392 20.6443 7.14458 20.476 6.77949C19.8866 7.48158 19.2693 8.32409 18.8765 8.85768C17.8101 9.58785 17.3611 10.2899 17.3611 10.2899C17.9784 8.18367 19.7744 6.61099 21.9632 6.21781C22.5805 6.10548 23.254 6.04932 23.9837 6.04932C25.9199 6.0774 27.8562 6.55482 29.7082 7.48158Z" fill="#D82122"/>
<path d="M14.2464 12.8734C10.9631 12.7611 12.0575 8.94171 12.1137 8.71704C12.1137 8.74513 12.3382 11.722 14.2464 12.8734Z" fill="#D82122"/>
<path d="M17.4731 5.99292C14.9475 7.50944 15.4526 11.1322 15.4526 11.1322C13.0393 7.45327 17.2767 6.07717 17.4731 5.99292Z" fill="#D82122"/>
<path d="M13.3202 13.8845C13.4885 14.0249 13.6569 14.2776 13.4605 14.6428C13.3482 14.8393 13.1798 14.8112 12.9273 14.6989C12.5906 14.5304 10.5701 13.3509 8.74609 12.1433C10.8226 12.8735 12.9273 13.6598 13.264 13.8283C13.264 13.8283 13.2921 13.8564 13.3202 13.8845Z" fill="white"/>
</svg>
