<svg width="61" height="60" viewBox="0 0 61 60" fill="none" xmlns="http://www.w3.org/2000/svg">
<circle cx="30.5" cy="30" r="30" fill="#212121"/>
<path fill-rule="evenodd" clip-rule="evenodd" d="M45.7462 12.1118C43.8772 8.87455 39.7378 7.76539 36.5005 9.63442L11.3795 24.138C8.14229 26.007 7.03312 30.1465 8.90215 33.3837C10.7712 36.621 14.9106 37.7302 18.1479 35.8611L43.2688 21.3575C46.5061 19.4885 47.6153 15.3491 45.7462 12.1118Z" fill="#0795B0"/>
<path fill-rule="evenodd" clip-rule="evenodd" d="M46.5389 11.6543C44.4171 7.97923 39.7178 6.72006 36.0427 8.84186L10.9218 23.3455C7.24669 25.4673 5.98752 30.1665 8.10932 33.8416C10.2311 37.5167 14.9304 38.7759 18.6055 36.6541L43.7264 22.1505C47.4015 20.0287 48.6607 15.3294 46.5389 11.6543ZM36.9581 10.4273C39.7575 8.81109 43.3372 9.77024 44.9534 12.5697C46.5697 15.3691 45.6105 18.9487 42.8111 20.565L17.6901 35.0686C14.8907 36.6848 11.3111 35.7257 9.6948 32.9262C8.07855 30.1268 9.03771 26.5472 11.8371 24.9309L36.9581 10.4273Z" fill="#08ADCC"/>
<path fill-rule="evenodd" clip-rule="evenodd" d="M45.7287 47.8882C43.8596 51.1254 39.7202 52.2346 36.4829 50.3656L11.362 35.862C8.12471 33.993 7.01554 29.8535 8.88457 26.6163C10.7536 23.379 14.8931 22.2698 18.1303 24.1389L43.2513 38.6425C46.4885 40.5115 47.5977 44.6509 45.7287 47.8882Z" fill="#00CED1"/>
<path fill-rule="evenodd" clip-rule="evenodd" d="M46.5215 48.3457C44.3997 52.0208 39.7005 53.2799 36.0254 51.1581L10.9044 36.6545C7.22936 34.5327 5.97018 29.8335 8.09199 26.1584C10.2138 22.4833 14.9131 21.2241 18.5881 23.3459L43.7091 37.8495C47.3842 39.9713 48.6433 44.6706 46.5215 48.3457ZM36.9408 49.5727C39.7402 51.1889 43.3198 50.2298 44.9361 47.4303C46.5523 44.6309 45.5932 41.0513 42.7937 39.435L17.6728 24.9314C14.8733 23.3152 11.2937 24.2743 9.67747 27.0738C8.06121 29.8732 9.02037 33.4528 11.8198 35.0691L36.9408 49.5727Z" fill="#00E7EB"/>
</svg>
