<svg width="32" height="32" viewBox="0 0 32 32" fill="none" xmlns="http://www.w3.org/2000/svg">
<circle cx="16" cy="16" r="16" fill="white"/>
<path fill-rule="evenodd" clip-rule="evenodd" d="M15.9999 29.0668C23.2164 29.0668 29.0666 23.2167 29.0666 16.0002C29.0666 8.78364 23.2164 2.9335 15.9999 2.9335C8.7834 2.9335 2.93325 8.78364 2.93325 16.0002C2.93325 23.2167 8.7834 29.0668 15.9999 29.0668ZM15.9999 30.6668C24.1001 30.6668 30.6666 24.1003 30.6666 16.0002C30.6666 7.89999 24.1001 1.3335 15.9999 1.3335C7.89974 1.3335 1.33325 7.89999 1.33325 16.0002C1.33325 24.1003 7.89974 30.6668 15.9999 30.6668Z" fill="#121212"/>
<path d="M17.5227 10.9532C17.324 10.5256 17.1252 10.098 16.9265 9.66953C19.7866 8.55183 19.9987 8.36066 20.9873 5.94165C21.2464 6.22925 21.4652 6.49672 21.71 6.73904C22.9795 7.99676 24.4628 8.94592 26.0651 9.71732C26.2579 9.81039 26.3762 9.87495 26.2948 10.1449C24.9633 14.5537 23.6712 18.9758 21.8727 23.226C21.5038 24.0972 21.0795 24.9441 20.6745 25.7993C20.6267 25.9 20.6175 26.0559 20.4255 26.0568C21.0342 22.7791 20.6603 19.5762 19.7027 16.4251C19.1602 14.64 18.466 12.9086 17.6728 11.219C17.6401 11.1494 17.6258 11.053 17.5243 11.0337C17.5252 11.0069 17.5243 10.9792 17.5227 10.9524V10.9532Z" fill="#121212"/>
<path d="M14.6786 9.57306C14.0036 10.5851 13.4167 11.6391 12.9572 12.761C12.0424 14.9938 11.51 17.3189 11.2416 19.7128C10.9926 21.9356 10.9322 24.1643 10.9306 26.4248C10.7176 25.9712 10.5021 25.5192 10.2933 25.0648C8.665 21.5205 7.17167 17.926 6.26611 14.1168C5.93659 12.7324 5.70601 11.3314 5.61042 9.90761C5.59113 9.61582 5.69427 9.53533 5.94916 9.47077C7.84329 8.99032 9.68962 8.39081 11.2936 7.22029C11.4152 7.13141 11.5016 7.06098 11.6106 7.26138C12.257 8.44447 13.3177 9.0901 14.5578 9.49508C14.5956 9.50766 14.6266 9.53868 14.6794 9.5739L14.6786 9.57306Z" fill="#121212"/>
<path d="M17.5227 10.9534C17.5252 10.9802 17.526 11.007 17.5243 11.0347C16.8552 11.8832 16.9475 12.8735 16.9693 13.8646C17.0632 18.1148 16.5685 22.3039 15.5891 26.4367C15.4676 26.9499 15.2043 27.4119 14.8882 27.8873C14.8882 27.1318 14.9142 26.3755 14.8831 25.6209C14.7783 23.0216 14.3448 20.4642 13.903 17.9052C13.5701 15.9767 13.7436 14.0356 14.0254 12.108C14.0488 11.9478 14.1143 11.8715 14.2945 11.8656C15.4449 11.8287 16.5106 11.4866 17.5218 10.9534H17.5227Z" fill="#141414"/>
</svg>
