<svg width="64" height="64" viewBox="0 0 64 64" fill="none" xmlns="http://www.w3.org/2000/svg">
<circle cx="32" cy="32" r="32" fill="#2B81BF"/>
<mask id="mask0_1539_10593" style="mask-type:luminance" maskUnits="userSpaceOnUse" x="9" y="10" width="49" height="41">
<path d="M57.3333 10.6667H9.33325V50.592H57.3333V10.6667Z" fill="white"/>
</mask>
<g mask="url(#mask0_1539_10593)">
<path d="M57.1413 34.1704C57.0488 33.3929 56.4356 30.5819 53.8708 28.4916C52.8697 27.666 51.562 26.9278 49.8623 26.4167C49.3131 23.4811 48.047 20.7258 46.1758 18.3943C42.5178 13.7966 36.6824 10.7825 30.0936 10.6777L30.0783 10.6667V10.6777C29.8439 10.6777 29.6095 10.6777 29.3752 10.6777V10.6667L29.3642 10.6777C23.7589 10.776 18.4011 13.0125 14.6095 16.8479C11.1398 20.3579 9.26701 24.8922 9.33273 29.6186C9.37873 32.5673 9.43349 33.4715 9.7971 39.3818C9.87376 40.6202 9.96357 42.0771 10.0687 43.82C10.0821 44.0995 10.1633 44.3715 10.3053 44.6128C12.5987 48.3587 24.7073 48.8283 30.6237 48.8283C32.4516 48.8283 33.7538 48.789 33.9762 48.778C34.4822 48.991 38.1697 50.5254 39.8903 50.5909C40.14 50.5995 40.3894 50.567 40.6285 50.4948L44.0631 49.4529C44.1878 49.415 44.2961 49.3366 44.3707 49.23C44.4453 49.1235 44.482 48.9952 44.4749 48.8654L44.3544 46.4716C44.3484 46.3376 44.3934 46.2062 44.4803 46.1038C44.5672 46.0013 44.6897 45.9354 44.8232 45.919C49.2807 45.3839 52.0757 46.6354 53.0899 47.046C53.1648 47.076 53.2451 47.0901 53.3258 47.0875C53.4065 47.0848 53.4858 47.0655 53.5586 47.0307L56.8223 45.4734C56.917 45.4278 56.9973 45.3577 57.0547 45.2705C57.1125 45.1832 57.1457 45.0821 57.1511 44.9776C57.2373 43.3744 57.5221 37.1627 57.1413 34.1704ZM51.9136 35.4569C51.0593 35.2232 49.4888 34.9109 47.1724 34.8858C47.7925 34.451 48.5044 34.1641 49.2533 34.047C50.1295 33.9575 50.8217 34.1868 51.3824 34.7438C51.5928 34.9577 51.7747 35.1977 51.9235 35.458L51.9136 35.4569ZM51.4021 28.1891L50.1755 33.3546C49.8401 33.3007 49.499 33.2919 49.1613 33.3284H49.1416C48.6203 33.4126 48.1127 33.5661 47.6324 33.7849L45.8034 29.7781C46.7019 29.09 47.7243 28.5799 48.8152 28.2754C49.658 28.0406 50.5448 28.0091 51.4021 28.1837V28.1891ZM20.3747 33.7696C17.3081 33.4529 14.7716 33.0467 12.9382 32.7038C12.9097 31.7296 12.8703 28.5866 13.4288 25.9635C15.1812 26.2758 17.6345 26.6537 20.5762 26.9573C20.3221 30.2411 20.3484 32.7726 20.3747 33.7642V33.7696ZM16.7714 25.673C17.1438 22.4186 18.3047 20.811 18.6903 20.3546C20.217 20.6079 22.0263 20.8525 24.0699 21.0207C23.5048 22.7593 23.3931 25.3519 23.3734 26.3937C20.8785 26.1961 18.6421 25.934 16.7714 25.6675V25.673ZM21.4896 19.9341C21.7262 19.1828 22.4381 17.2629 24.0568 15.1639C25.8437 15.4174 27.6449 15.5568 29.4497 15.5811V20.4387C26.7887 20.4269 24.1307 20.2584 21.4896 19.9341ZM24.2058 26.4495C24.2277 25.4338 24.3416 22.6905 24.9286 21.0808C26.4269 21.19 28.039 21.249 29.7475 21.249C31.5218 21.249 33.3968 21.1813 35.3572 21.0196C36.0735 22.6905 35.9881 25.5474 35.9333 26.5368C32.0261 26.752 28.1093 26.7229 24.2058 26.4495ZM36.1984 15.1443C37.3076 16.5555 38.1703 18.143 38.7502 19.8402C35.9428 20.2165 33.1145 20.4164 30.282 20.4387V15.5811C32.2619 15.5723 34.2387 15.4263 36.1984 15.1443ZM36.2225 20.9454C38.1413 20.7641 40.1389 20.4911 42.1914 20.1066C43.1604 21.8248 43.8732 23.6746 44.3073 25.5976C41.8118 26.0221 39.2961 26.3181 36.7701 26.4844C36.8292 25.4098 36.8862 22.7495 36.2225 20.9432V20.9454ZM30.4485 27.4978H30.8734C33.9393 27.5022 37.0031 27.3404 40.0513 27.0129C39.8849 27.1069 39.7228 27.203 39.5606 27.3056C37.2826 28.769 35.5894 31.106 34.5358 34.1923C33.1405 34.2556 31.7737 34.2862 30.4485 34.2884V27.4978ZM39.5125 28.2142L44.6972 29.7781C42.7258 31.5516 41.3349 34.0372 40.5026 36.49L34.9914 35.1642C35.7865 32.4428 37.1709 29.896 39.5125 28.2077V28.2142ZM45.2141 30.2652L46.9862 34.1377C45.7443 34.9218 44.9338 36.1427 44.4103 37.4641L41.2123 36.7084C41.9833 34.415 43.2691 31.9797 45.2141 30.2586V30.2652ZM50.3704 27.3559C49.7786 27.3502 49.1888 27.4266 48.6181 27.583C47.437 27.9142 46.3321 28.4721 45.3653 29.2255L40.3054 27.6966C41.8978 26.7727 43.7707 26.3446 45.7443 26.456C47.5842 26.5587 49.1065 26.8841 50.3704 27.3493V27.3559ZM48.9795 26.1742C48.3899 26.0365 47.7932 25.9308 47.1921 25.8575C47.7397 25.7396 48.2808 25.6173 48.8218 25.484C48.8853 25.7178 48.9357 25.9471 48.9795 26.1742ZM48.605 24.6999C47.4462 24.9839 46.286 25.2321 45.1243 25.4447C44.6984 23.5211 44.0015 21.6673 43.0544 19.9385C43.9766 19.755 44.9163 19.5432 45.856 19.3116C47.0798 20.9367 48.0114 22.7614 48.6093 24.7043L48.605 24.6999ZM45.2996 18.6061C43.3479 19.0779 41.4379 19.4405 39.5848 19.7135C39.3504 18.949 38.6779 17.0925 37.1271 14.9892C38.1493 14.8166 39.1971 14.5982 40.2704 14.3339C42.1832 15.459 43.8863 16.9059 45.304 18.6105L45.2996 18.6061ZM29.5088 11.8222C29.5762 11.7863 29.6514 11.7676 29.7278 11.7676C29.8042 11.7676 29.8795 11.7863 29.9469 11.8222C31.8131 12.8312 32.8952 13.8338 33.5129 14.631C31.0054 14.8389 28.4843 14.8214 25.98 14.5786C26.6086 13.7879 27.682 12.8072 29.5088 11.8222ZM28.1441 11.5491C28.1544 11.5485 28.1646 11.5514 28.1731 11.5572C28.1816 11.5631 28.1878 11.5716 28.1908 11.5814C28.1938 11.5913 28.1935 11.6018 28.1898 11.6114C28.1861 11.621 28.1793 11.6291 28.1704 11.6343C26.7751 12.4993 25.7193 13.4515 25.025 14.4737C23.4869 14.2932 21.9621 14.0138 20.4601 13.6372C22.8633 12.456 25.4722 11.747 28.1441 11.5491ZM15.1899 17.418C16.4434 16.1545 17.8651 15.069 19.4153 14.192C20.6321 14.5454 21.87 14.8226 23.1215 15.022C21.5071 17.2214 20.8478 19.1478 20.6507 19.8271C18.4626 19.5402 16.2948 19.1156 14.1604 18.5559C14.4868 18.1649 14.8263 17.7849 15.1899 17.418ZM10.1519 29.6055C10.1324 28.1896 10.2966 26.7772 10.6404 25.4032C10.9361 25.4709 11.613 25.6217 12.6118 25.8073C12.0642 28.3933 12.0751 31.3682 12.1036 32.5389C11.2581 32.3685 10.6207 32.2265 10.2133 32.1304C10.1804 31.342 10.1651 30.5884 10.1498 29.6055H10.1519ZM10.2483 33.015C11.096 33.2094 12.6184 33.5326 14.6774 33.869V39.8951C12.4388 39.3556 11.0741 38.8314 10.5681 38.6239C10.3995 35.8653 10.3031 34.2906 10.2461 33.015H10.2483ZM19.5511 41.6534V47.3802C17.4264 47.0984 15.4353 46.6922 13.8779 46.1178L13.7618 40.5285L14.0706 40.6071L14.2689 40.6563C14.3565 40.6781 14.4441 40.6999 14.535 40.7207C14.6259 40.7414 14.7157 40.7644 14.8088 40.7851L15.1374 40.8594L15.386 40.914L15.8153 41.0058C15.9752 41.0396 16.1439 41.0724 16.3049 41.1051C16.7167 41.1874 17.1489 41.2671 17.6016 41.3443C17.9667 41.4062 18.3464 41.467 18.7406 41.5267C19.0287 41.5692 19.3244 41.6119 19.6277 41.6522L19.5511 41.6534ZM17.3891 40.463L17.1383 40.4171L16.8897 40.3713L16.6476 40.3243L16.4111 40.2773L16.1778 40.2304L15.7397 40.1386L15.5043 40.0873V34C17.6115 34.3277 20.194 34.6466 23.1335 34.865V41.1903C21.9551 41.0986 20.8818 40.9828 19.918 40.8561C19.0111 40.7371 18.1657 40.6039 17.3869 40.463H17.3891ZM29.4519 47.9983C26.8869 47.9699 23.5377 47.8498 20.3834 47.4806V41.7472C23.3254 42.0945 26.2857 42.2637 29.2481 42.254H29.4519V47.9983ZM30.2842 47.9983V42.2431C31.2458 42.2321 32.2468 42.2037 33.2873 42.1579C33.2553 44.0989 33.3703 46.0396 33.6312 47.9633C33.1712 47.9852 31.9467 48.0158 30.282 48.007L30.2842 47.9983ZM33.3902 40.0043C33.3552 40.4499 33.3289 40.8911 33.3114 41.3235C30.199 41.4722 27.0807 41.4452 23.9714 41.2427V34.924C25.9625 35.0528 28.1047 35.1293 30.3608 35.1293C31.6269 35.1293 32.9324 35.1031 34.2642 35.0463C33.807 36.6686 33.5135 38.3325 33.388 40.0131L33.3902 40.0043ZM39.5606 41.4961C39.5541 41.8914 39.5475 42.4418 39.5454 43.0752L34.0364 41.5944C34.0906 39.6625 34.3475 37.7416 34.803 35.8632L40.2791 37.1802C39.8486 38.5806 39.6069 40.032 39.5606 41.4961ZM40.4368 49.7959C40.4368 48.8217 40.2594 46.0173 40.266 43.8353L43.4925 43.6475C43.5013 43.7676 43.5122 44.1716 43.5122 44.1782L43.7488 48.7955L40.4368 49.7959ZM43.4793 42.9442L40.2726 43.1386C40.2726 42.42 40.2835 41.9373 40.2901 41.5004C40.3098 40.4608 40.5289 38.9887 40.9998 37.3942L44.1606 38.1521C43.6748 39.7038 43.4425 41.3233 43.4728 42.9485L43.4793 42.9442ZM47.2995 45.0519C47.1527 45.0519 47.0015 45.0519 46.8504 45.0519C45.9955 45.0513 45.1421 45.1207 44.2986 45.2594L44.2416 44.1258C44.2416 44.1203 44.2416 44.0876 44.235 44.0319C44.2345 44.022 44.2345 44.0122 44.235 44.0024C44.235 43.9915 44.235 43.9805 44.235 43.9685C44.2356 43.9642 44.2356 43.9598 44.235 43.9554C44.235 43.9456 44.235 43.9347 44.235 43.9227C44.235 43.8779 44.2285 43.8266 44.2263 43.7687C44.2241 43.7108 44.2263 43.6595 44.2197 43.6016C44.2197 43.5754 44.2197 43.547 44.2197 43.5175C44.2197 43.357 44.212 43.167 44.2132 42.9551C44.2132 42.8983 44.2132 42.8393 44.2132 42.7793C44.2132 42.741 44.2132 42.7017 44.2132 42.6624C44.2132 42.5609 44.2132 42.4549 44.2219 42.3457C44.2219 42.2911 44.2241 42.2354 44.2285 42.1786C44.2285 42.1218 44.2285 42.0694 44.2372 42.0072C44.246 41.9449 44.2427 41.8903 44.2471 41.8302C44.2515 41.7702 44.2548 41.7101 44.2591 41.649C44.2635 41.5878 44.2679 41.5267 44.2734 41.4644L44.2832 41.3552C44.2832 41.3028 44.2931 41.246 44.2986 41.1957C44.2986 41.1586 44.3062 41.1204 44.3095 41.0865C44.3161 41.0221 44.3238 40.9577 44.3314 40.8932L44.3479 40.7589C44.3533 40.713 44.3588 40.6672 44.3654 40.6213C44.372 40.5755 44.3774 40.5362 44.384 40.4935C44.3928 40.4269 44.4026 40.3592 44.4147 40.2904C44.4267 40.2216 44.4388 40.1353 44.453 40.0578C44.4628 39.9967 44.4738 39.9355 44.4848 39.8743C45.4268 39.8576 46.369 39.8985 47.306 39.9967L47.2995 45.0519ZM52.9179 41.3104C52.9015 41.7768 52.8741 42.0869 52.8686 42.1491C52.8683 42.1513 52.8683 42.1535 52.8686 42.1557L52.6693 46.0653C51.1739 45.527 49.6114 45.1963 48.0256 45.0825V40.0785C50.9827 40.4804 52.8905 41.3039 52.9168 41.317V41.3104H52.9179ZM44.6348 39.1394C44.9458 37.8595 45.4759 36.5752 46.3587 35.601C49.9532 35.5334 51.9442 36.193 52.3342 36.3371C52.4567 36.6826 52.5562 37.0357 52.6321 37.3942C52.8364 38.4307 52.9337 39.4854 52.9223 40.5416C51.9979 40.1812 48.8547 39.1001 44.6282 39.1438L44.6348 39.1394ZM56.4423 44.8509L53.3823 46.3121L53.5904 42.2103C53.5969 42.1579 53.6276 41.8171 53.6473 41.3017L56.6043 39.8929C56.563 42.1185 56.4688 44.2 56.4356 44.8553L56.4423 44.8509ZM56.6088 39.087L53.6583 40.4957C53.6583 39.2551 53.5334 37.5581 53.0209 36.1274L56.2077 33.2727C56.3046 33.5977 56.3777 33.929 56.4271 34.2644C56.5805 35.4154 56.6177 37.2522 56.602 39.0913L56.6088 39.087Z" fill="#00142D"/>
<path d="M48.9798 26.1738C48.3902 26.0361 47.7935 25.9304 47.1924 25.8571C47.74 25.7392 48.281 25.6169 48.8221 25.4836C48.8856 25.7173 48.936 25.9467 48.9798 26.1738Z" fill="#F5FDFF"/>
<path d="M56.5962 39.8972C56.5634 42.1228 56.4692 44.2 56.4365 44.8552L53.3765 46.3164L53.5846 42.2146C53.5911 42.1622 53.6218 41.8214 53.6415 41.306L56.5962 39.8972Z" fill="#F5FDFF"/>
<path d="M56.6033 39.0913L53.6528 40.5001C53.6528 39.2595 53.5279 37.5624 53.0154 36.1318L56.209 33.2727C56.3054 33.5976 56.379 33.929 56.4279 34.2643C56.5813 35.4153 56.6185 37.2522 56.6033 39.0913Z" fill="#F5FDFF"/>
<path d="M51.9168 35.4567C51.0626 35.2229 49.4899 34.9106 47.168 34.8844C47.7881 34.4497 48.5 34.1627 49.2489 34.0457C50.1251 33.9561 50.8173 34.1855 51.378 34.7425C51.5876 34.9564 51.7687 35.1965 51.9168 35.4567Z" fill="#F5FDFF"/>
<path d="M52.9221 40.5414C51.9977 40.181 48.8545 39.0998 44.627 39.1435C44.938 37.8636 45.4681 36.5793 46.3508 35.6052C49.9453 35.5375 51.9364 36.1971 52.3263 36.3413C52.8126 37.6845 52.9221 39.3401 52.9221 40.5414Z" fill="#F5FDFF"/>
<path d="M47.2941 39.9909V45.0559C47.1473 45.0559 46.9962 45.0559 46.845 45.0559C45.9902 45.0553 45.1367 45.1247 44.2932 45.2634L44.2362 44.1255C44.1418 42.7037 44.2213 41.2756 44.4728 39.873C45.4147 39.8548 46.3569 39.8942 47.2941 39.9909Z" fill="#F5FDFF"/>
<path d="M52.9112 41.3105C52.8937 41.8194 52.863 42.1426 52.8608 42.1601L52.6615 46.0741C51.1661 45.5358 49.6036 45.2051 48.0178 45.0912V40.0786C50.9749 40.4805 52.8827 41.3039 52.909 41.317L52.9112 41.3105Z" fill="#F5FDFF"/>
<path d="M43.7498 48.7912L40.4313 49.8003C40.4313 48.8261 40.2539 46.0217 40.2604 43.8397L43.4935 43.6475C43.5023 43.7676 43.5132 44.1717 43.5132 44.1782L43.7498 48.7912Z" fill="#F5FDFF"/>
<path d="M43.4741 42.9484L40.2673 43.1428C40.2673 42.4242 40.2783 41.9415 40.2849 41.5047C40.3046 40.465 40.5236 38.9929 40.9946 37.3984L44.1619 38.152C43.6762 39.7036 43.4439 41.3232 43.4741 42.9484Z" fill="#F5FDFF"/>
<path d="M46.9876 34.1313C45.7456 34.9154 44.9351 36.1364 44.4116 37.4578L41.2136 36.702C41.9803 34.4152 43.2704 31.9799 45.2155 30.2588L46.9876 34.1313Z" fill="#F5FDFF"/>
<path d="M51.4034 28.1839L50.1768 33.3494C49.8414 33.2954 49.5003 33.2866 49.1626 33.3232H49.1429C48.6216 33.4073 48.114 33.5609 47.6337 33.7797L45.8047 29.7783C46.7032 29.0902 47.7255 28.5801 48.8165 28.2756C49.6593 28.0408 50.5461 28.0093 51.4034 28.1839Z" fill="#F5FDFF"/>
<path d="M50.3707 27.3493C49.7788 27.3437 49.1891 27.4201 48.6183 27.5765C47.4367 27.9097 46.3317 28.4698 45.3655 29.2255L40.3057 27.6966C41.8981 26.7727 43.7709 26.3446 45.7445 26.456C47.5844 26.5587 49.1068 26.8841 50.3707 27.3493Z" fill="#F5FDFF"/>
<path d="M44.6985 29.7782C42.7271 31.5517 41.3362 34.0373 40.5038 36.4901L34.9927 35.1643C35.7878 32.4428 37.1721 29.8961 39.5137 28.2078L44.6985 29.7782Z" fill="#F5FDFF"/>
<path d="M40.2825 37.1803C39.8512 38.5807 39.6089 40.0321 39.5619 41.4962C39.5553 41.8915 39.5487 42.442 39.5466 43.0753L34.0376 41.5945C34.0918 39.6626 34.3487 37.7417 34.8043 35.8633L40.2825 37.1803Z" fill="#F5FDFF"/>
<path d="M33.6295 47.9719C33.1717 47.985 31.9472 48.0156 30.2825 48.0069V42.2516C31.2441 42.2407 32.2451 42.2124 33.2856 42.1665C33.2536 44.1075 33.3686 46.0482 33.6295 47.9719Z" fill="#F5FDFF"/>
<path d="M19.6214 41.6531H19.5491V47.38C17.4244 47.0983 15.4333 46.692 13.8759 46.1176L13.7598 40.5283C15.6892 41.0203 17.6466 41.3959 19.6214 41.6531Z" fill="#F5FDFF"/>
<path d="M29.45 42.256V48.0025C26.885 47.9741 23.5358 47.854 20.3816 47.4849V41.7515C23.3235 42.0987 26.2838 42.2679 29.2463 42.2582L29.45 42.256Z" fill="#F5FDFF"/>
<path d="M34.2638 35.0505C33.8069 36.6715 33.5133 38.3338 33.3876 40.0129C33.3526 40.4585 33.3263 40.8997 33.3087 41.3321C30.1964 41.4808 27.0781 41.4538 23.9688 41.2513V34.9238C25.9621 35.0527 28.1043 35.1292 30.3604 35.1292C31.6265 35.1292 32.932 35.1073 34.2638 35.0505Z" fill="#F5FDFF"/>
<path d="M23.1324 34.8649V41.1902C21.954 41.0985 20.8807 40.9827 19.9169 40.8561C18.2171 40.6376 16.7474 40.3624 15.5032 40.0916V34C17.6148 34.3254 20.1973 34.6465 23.1324 34.8649Z" fill="#F5FDFF"/>
<path d="M14.6751 33.8686V39.8948C12.4387 39.3552 11.0741 38.831 10.5681 38.6236C10.3994 35.8671 10.303 34.2924 10.2461 33.0168C11.0938 33.209 12.6183 33.5323 14.6751 33.8686Z" fill="#F5FDFF"/>
<path d="M12.099 32.5389C11.2535 32.3686 10.6161 32.2266 10.2086 32.1305C10.1802 31.342 10.1648 30.5885 10.1495 29.6056C10.13 28.1897 10.2941 26.7772 10.638 25.4033C10.9337 25.471 11.6105 25.6217 12.6094 25.8074C12.0618 28.3934 12.0705 31.3682 12.099 32.5389Z" fill="#F5FDFF"/>
<path d="M20.3743 33.7642C17.3077 33.4475 14.7712 33.0412 12.9378 32.6983C12.9093 31.7242 12.8699 28.5812 13.4285 25.958C15.1808 26.2704 17.6341 26.6482 20.5758 26.9518C20.3217 30.2411 20.348 32.7726 20.3743 33.7642Z" fill="#F5FDFF"/>
<path d="M40.0518 27.0066C39.8854 27.1005 39.7232 27.1966 39.5612 27.2993C37.2831 28.7627 35.5899 31.0997 34.5363 34.1859C33.141 34.2493 31.7742 34.2798 30.449 34.282V27.4915H30.8739C33.9398 27.4959 37.0036 27.334 40.0518 27.0066Z" fill="#F5FDFF"/>
<path d="M48.6101 24.7042C47.4513 24.9881 46.2911 25.2364 45.1295 25.449C44.7026 23.5236 44.0042 21.6683 43.0552 19.9384C43.9773 19.7549 44.917 19.543 45.8567 19.3115C47.0806 20.9367 48.0122 22.7613 48.6101 24.7042Z" fill="#F5FDFF"/>
<path d="M45.3048 18.6106C43.3531 19.0824 41.4431 19.4449 39.59 19.7179C39.3556 18.9535 38.6831 17.097 37.1323 14.9936C38.1545 14.8211 39.2022 14.6027 40.2756 14.3384C42.1865 15.4625 43.8881 16.9079 45.3048 18.6106Z" fill="#F5FDFF"/>
<path d="M28.1707 11.6346C26.7755 12.4995 25.7197 13.4518 25.0253 14.474C23.4872 14.2935 21.9624 14.0141 20.4604 13.6374C22.8637 12.4562 25.4725 11.7473 28.1444 11.5494C28.1548 11.5488 28.1649 11.5516 28.1734 11.5575C28.1819 11.5634 28.1881 11.5719 28.1911 11.5817C28.1942 11.5915 28.1938 11.6021 28.1901 11.6117C28.1864 11.6212 28.1796 11.6293 28.1707 11.6346Z" fill="#F5FDFF"/>
<path d="M33.5133 14.631C31.0059 14.839 28.4848 14.8214 25.9805 14.5786C26.6069 13.7879 27.6803 12.8072 29.507 11.8222C29.5745 11.7863 29.6497 11.7676 29.7261 11.7676C29.8025 11.7676 29.8777 11.7863 29.9451 11.8222C31.8136 12.8313 32.8957 13.8338 33.5133 14.631Z" fill="#F5FDFF"/>
<path d="M29.4493 15.5808V20.4383C26.7883 20.4266 24.1303 20.2581 21.4893 19.9338C21.7258 19.1824 22.4377 17.2626 24.0564 15.1636C25.8433 15.4171 27.6446 15.5564 29.4493 15.5808Z" fill="#F5FDFF"/>
<path d="M23.122 15.0221C21.5076 17.2216 20.8483 19.148 20.6512 19.8272C18.463 19.5403 16.2953 19.1157 14.1609 18.5561C14.4894 18.1651 14.8268 17.7851 15.1904 17.4181C16.4438 16.1547 17.8656 15.0692 19.4157 14.1921C20.6326 14.5455 21.8704 14.8227 23.122 15.0221Z" fill="#F5FDFF"/>
<path d="M24.0702 21.015C23.5051 22.7536 23.3934 25.3462 23.3737 26.388C20.8788 26.1959 18.6467 25.9337 16.7717 25.6673C17.1441 22.4129 18.305 20.8054 18.6906 20.3489C20.2173 20.6044 22.0266 20.8469 24.0702 21.015Z" fill="#F5FDFF"/>
<path d="M35.9329 26.5367C32.0257 26.7519 28.1088 26.7228 24.2053 26.4494C24.2273 25.4337 24.3412 22.6904 24.9282 21.0807C26.4264 21.1899 28.0386 21.2489 29.7471 21.2489C31.5214 21.2489 33.3964 21.1812 35.3568 21.0195C36.0731 22.6904 35.9877 25.5473 35.9329 26.5367Z" fill="#F5FDFF"/>
<path d="M36.7705 26.4822C36.8297 25.4054 36.8866 22.7495 36.2229 20.9432C38.1417 20.7619 40.1394 20.4889 42.1919 20.1045C43.1608 21.8226 43.8737 23.6724 44.3078 25.5955C41.8123 26.02 39.2966 26.316 36.7705 26.4822Z" fill="#F5FDFF"/>
<path d="M38.7507 19.8402C35.9433 20.2165 33.115 20.4163 30.2825 20.4386V15.5811C32.2618 15.57 34.2379 15.4218 36.1967 15.1377C37.3073 16.5507 38.1708 18.1405 38.7507 19.8402Z" fill="#F5FDFF"/>
<path d="M39.2096 13.7147C37.6443 14.0705 36.0593 14.3338 34.4629 14.5032C33.7422 13.4111 32.6185 12.4064 31.1094 11.4934C33.934 11.6701 36.6916 12.4263 39.2096 13.7147Z" fill="#80ABFF"/>
<path d="M17.7513 20.148C17.1763 20.9529 16.2695 22.6368 15.9354 25.5079C13.2291 25.0995 11.4122 24.7096 10.8438 24.5818C11.4369 22.6408 12.3715 20.8204 13.6037 19.2056C14.2159 19.3824 15.6561 19.7647 17.7513 20.148Z" fill="#80ABFF"/>
<path d="M29.6041 27.4442V34.2391C26.5463 34.2162 23.714 34.0458 21.2016 33.8077C21.1495 31.5351 21.2153 29.2612 21.3988 26.9954C23.8597 27.2291 26.6372 27.4038 29.6041 27.4442Z" fill="#80ABFF"/>
<path d="M13.0254 45.7322C12.0857 45.2954 11.3749 44.7733 10.9949 44.1519C10.9221 44.0241 10.8811 43.8806 10.8755 43.7337C10.7759 42.0857 10.6893 40.6955 10.616 39.5051C11.1011 39.6919 11.8634 39.9616 12.9104 40.2609L13.0254 45.7322Z" fill="#80ABFF"/>
<path d="M39.5302 49.795C37.9422 49.5766 35.1231 48.4343 34.3827 48.1274C34.1054 46.1977 33.9809 44.2493 34.0103 42.3L39.5324 43.7831C39.5214 45.988 39.528 48.7739 39.5302 49.795Z" fill="#80ABFF"/>
<path d="M55.9358 32.4865L52.7029 35.3761C52.4949 34.9378 52.2159 34.5367 51.8771 34.189C51.5893 33.9 51.2473 33.6704 50.8706 33.513L52.0972 28.3398C52.5264 28.4881 52.9341 28.6923 53.3096 28.947C54.4779 29.8798 55.3831 31.0996 55.9358 32.4865Z" fill="#80ABFF"/>
<path d="M10.616 39.5051C10.6839 40.7064 10.7846 42.0934 10.8777 43.7457C10.8841 43.8936 10.927 44.0376 11.0026 44.165C11.1508 44.3989 11.3315 44.6107 11.5392 44.7941C11.9838 45.1805 12.485 45.4968 13.0254 45.7322L12.9104 40.262C11.8612 39.9562 11.1022 39.6963 10.616 39.5051Z" fill="#6691E5"/>
<path d="M15.5075 40.0874V38.8228C16.0902 39.3612 16.7177 39.9148 17.3869 40.4609C16.7122 40.3419 16.0847 40.2152 15.5075 40.0874ZM33.6289 47.9722C32.5003 47.8304 31.3823 47.6148 30.282 47.3268V48.0072C31.9467 48.0159 33.1711 47.9853 33.6289 47.9722ZM13.8756 46.1157C15.433 46.6901 17.4241 47.0985 19.5489 47.3781V42.1296C19.2706 41.9308 19.0013 41.7288 18.7329 41.5267C17.0587 41.2815 15.3986 40.9483 13.7595 40.5286L13.8756 46.1157ZM29.4496 48.0006V47.0931C26.0391 46.0916 22.9878 44.4852 20.3812 42.7095V47.4829C23.5354 47.8542 26.8846 47.9744 29.4496 48.0028V48.0006ZM14.6751 39.8952V38.0387C11.8276 35.2714 10.2461 33.0151 10.2461 33.0151C10.303 34.2907 10.3994 35.8654 10.5681 38.6219C11.0741 38.8315 12.4387 39.3557 14.6751 39.8952Z" fill="#DBE3E5"/>
<path d="M52.3275 36.3457C52.8138 37.6879 52.9233 39.3445 52.9233 40.5458C51.999 40.1854 48.8557 39.1043 44.6281 39.148C44.9392 37.8681 45.4693 36.5838 46.352 35.6097C49.9465 35.5419 51.9376 36.2005 52.3275 36.3457ZM51.3769 34.7426C50.8161 34.1856 50.1196 33.9551 49.2478 34.0458C48.4991 34.1629 47.7873 34.4494 47.1668 34.8834C49.4887 34.9085 51.0614 35.223 51.9157 35.4568C51.7676 35.1966 51.5865 34.9565 51.3769 34.7426ZM48.019 40.0828V45.0976C48.5589 45.1358 49.0693 45.1981 49.5446 45.2745C50.5504 45.4357 51.54 45.6853 52.5017 46.0204L52.6605 46.0772L52.8598 42.1643C52.8598 42.1457 52.8927 41.8235 52.9102 41.3147V41.3201C52.8839 41.3081 50.9716 40.4803 48.019 40.0828ZM44.4726 39.8731C44.3756 40.3993 44.3051 40.93 44.2613 41.4632C44.2405 41.7122 44.2251 41.9524 44.2152 42.1774C44.2152 42.2342 44.2131 42.2899 44.2087 42.3445C44.201 42.5629 44.1978 42.7682 44.1978 42.9539C44.1978 43.2815 44.2043 43.5534 44.213 43.7522C44.213 43.8373 44.2207 43.9094 44.224 43.9706C44.2306 44.0656 44.235 44.1202 44.2361 44.1279L44.293 45.2658C45.1365 45.1271 45.99 45.0577 46.8449 45.0583C46.996 45.0583 47.1471 45.0583 47.2939 45.0583V39.9954C46.3569 39.8961 45.4147 39.8553 44.4726 39.8731Z" fill="#DBE3E5"/>
</g>
</svg>
