<svg width="64" height="64" viewBox="0 0 64 64" fill="none" xmlns="http://www.w3.org/2000/svg">
<circle cx="32" cy="32" r="32" fill="white"/>
<path d="M38.2043 48.2735C37.8624 47.8462 37.5206 47.3761 37.2642 46.9061L37.1359 46.6923L31.7086 36.8633L26.1958 46.735L26.0675 46.9487C25.7684 47.4189 25.4692 47.8889 25.1274 48.3163C24.9564 48.5299 24.7427 48.7437 24.5718 48.9573H38.8026C38.589 48.7437 38.3752 48.5299 38.2043 48.2735Z" fill="#7BD1E0"/>
<path d="M17.5206 32.1624H17.5634H17.6061H17.8198L29.1018 32.376L23.2899 22.6752L23.1617 22.4615C22.8625 21.9914 22.6488 21.4786 22.4352 20.9658C22.3497 20.7094 22.2642 20.4529 22.1788 20.1965L15.0847 32.4615C15.3411 32.376 15.5975 32.3334 15.8967 32.2906C16.4095 32.2051 16.9651 32.1624 17.5206 32.1624Z" fill="#7BD1E0"/>
<path d="M40.1701 22.4615L40.042 22.6752L34.23 32.3334L45.512 32.1196H45.7257H45.7685H45.8112H45.854C46.4094 32.1196 46.965 32.1624 47.4778 32.2479C47.7342 32.2906 47.9906 32.3334 48.247 32.4188L41.153 20.1965C41.0676 20.4529 40.9821 20.7094 40.8966 20.9658C40.7257 21.4786 40.4693 21.9487 40.1701 22.4615Z" fill="#7BD1E0"/>
<path d="M25.7255 20.9659L25.8538 21.1796L31.6657 30.8805L37.4777 21.1796L37.6059 21.0087L38.1187 19.9403C38.4179 19.2138 38.5461 18.4018 38.5461 17.5471C38.5461 13.7437 35.4691 10.6667 31.6657 10.6667C27.8623 10.6667 24.7854 13.7437 24.7854 17.5471C24.7854 18.4018 24.9563 19.2138 25.2127 19.9403C25.3409 20.2822 25.5118 20.6241 25.7255 20.9659Z" fill="url(#paint0_linear_1539_10583)"/>
<path d="M45.8112 48.8723C48.2044 48.8723 50.5121 47.633 51.7514 45.4535C52.9906 43.3595 52.948 40.8382 51.8796 38.8296L51.5804 38.3167C51.0249 37.4194 50.2129 36.65 49.23 36.0518C48.5034 35.6244 47.7342 35.368 46.9222 35.2398C46.5377 35.1971 46.153 35.1543 45.7685 35.1543H45.5548L34.23 35.368L39.7428 45.2826L39.871 45.4963C40.042 45.8382 40.2984 46.1374 40.512 46.4364C41.0248 47.0347 41.6232 47.5903 42.3924 48.0176C43.4608 48.5732 44.6146 48.8723 45.8112 48.8723Z" fill="url(#paint1_linear_1539_10583)"/>
<path d="M17.7768 35.1543H17.5631C17.1785 35.1543 16.7939 35.1971 16.4093 35.2398C15.64 35.368 14.828 35.6244 14.1015 36.0518C10.8109 37.9322 9.69982 42.163 11.5802 45.4535C12.8622 47.6758 15.1699 48.8723 17.5204 48.8723C18.6742 48.8723 19.8708 48.5732 20.9392 47.9322C21.6657 47.5048 22.3067 46.992 22.8195 46.351C23.0759 46.0518 23.2896 45.7099 23.4606 45.4108L23.5888 45.1971L29.0589 35.2826L17.7768 35.1543Z" fill="url(#paint2_linear_1539_10583)"/>
<defs>
<linearGradient id="paint0_linear_1539_10583" x1="31.6618" y1="33.7506" x2="31.6618" y2="9.13593" gradientUnits="userSpaceOnUse">
<stop stop-color="#B7DCE2"/>
<stop offset="0.6608" stop-color="#3BA4B6"/>
<stop offset="1" stop-color="#008AA1"/>
</linearGradient>
<linearGradient id="paint1_linear_1539_10583" x1="31.781" y1="33.8928" x2="53.0976" y2="46.2004" gradientUnits="userSpaceOnUse">
<stop stop-color="#F2E5B2"/>
<stop offset="0.1013" stop-color="#F0DF9E"/>
<stop offset="0.4039" stop-color="#E9CE68"/>
<stop offset="0.6655" stop-color="#E4C240"/>
<stop offset="0.8728" stop-color="#E1BB28"/>
<stop offset="1" stop-color="#E0B81F"/>
</linearGradient>
<linearGradient id="paint2_linear_1539_10583" x1="10.2455" y1="46.2502" x2="31.5618" y2="33.9428" gradientUnits="userSpaceOnUse">
<stop offset="0.1437" stop-color="#2D0060"/>
<stop offset="1" stop-color="#9374B6"/>
</linearGradient>
</defs>
</svg>
