<svg width="32" height="32" viewBox="0 0 32 32" fill="none" xmlns="http://www.w3.org/2000/svg">
<circle cx="16" cy="16" r="16" fill="#F3F3FA"/>
<path d="M20.0763 17.0909L17.3659 19.8113C17.2555 19.9223 17.1936 20.0724 17.1936 20.2289C17.1936 20.3854 17.2555 20.5355 17.3659 20.6465L19.4371 22.7207C19.6086 22.8882 19.8389 22.982 20.0787 22.982C20.3184 22.982 20.5487 22.8882 20.7202 22.7207L27.0687 16.4548C27.1525 16.3721 27.2191 16.2735 27.2646 16.1648C27.31 16.0561 27.3334 15.9394 27.3334 15.8216C27.3334 15.7038 27.31 15.5871 27.2646 15.4784C27.2191 15.3697 27.1525 15.2711 27.0687 15.1884L20.7208 8.92811C20.5493 8.76056 20.319 8.66675 20.0792 8.66675C19.8395 8.66675 19.6092 8.76056 19.4377 8.92811L17.3664 11.0023C17.2561 11.1133 17.1942 11.2634 17.1942 11.4199C17.1942 11.5764 17.2561 11.7265 17.3664 11.8375L20.0769 14.5579C20.2446 14.7235 20.3778 14.9207 20.4686 15.1381C20.5595 15.3555 20.6062 15.5889 20.6062 15.8245C20.6061 16.0602 20.5593 16.2935 20.4683 16.5108C20.3773 16.7282 20.2441 16.9254 20.0763 17.0909Z" fill="#0A6E5C"/>
<path d="M11.9253 17.0909L14.6358 19.8113C14.7461 19.9223 14.808 20.0724 14.808 20.2289C14.808 20.3854 14.7461 20.5355 14.6358 20.6465L12.5645 22.7207C12.393 22.8882 12.1627 22.982 11.923 22.982C11.6832 22.982 11.4529 22.8882 11.2814 22.7207L4.93147 16.4548C4.84762 16.3721 4.78104 16.2735 4.73559 16.1648C4.69015 16.0561 4.66675 15.9394 4.66675 15.8216C4.66675 15.7038 4.69015 15.5871 4.73559 15.4784C4.78104 15.3697 4.84762 15.2711 4.93147 15.1884L11.2811 8.92811C11.4526 8.76056 11.6829 8.66675 11.9227 8.66675C12.1625 8.66675 12.3927 8.76056 12.5642 8.92811L14.6355 11.0023C14.7458 11.1133 14.8077 11.2634 14.8077 11.4199C14.8077 11.5764 14.7458 11.7265 14.6355 11.8375L11.9253 14.5582C11.7576 14.7237 11.6244 14.9209 11.5336 15.1383C11.4427 15.3556 11.3959 15.5889 11.3959 15.8245C11.3959 16.0602 11.4427 16.2934 11.5336 16.5108C11.6244 16.7282 11.7576 16.9254 11.9253 17.0909Z" fill="#21BF73"/>
<path d="M12.6364 16.342C12.4992 16.2046 12.4221 16.0184 12.4221 15.8243C12.4221 15.6302 12.4992 15.444 12.6364 15.3066L15.4834 12.4597C15.6207 12.3224 15.8069 12.2454 16.0011 12.2454C16.1952 12.2454 16.3814 12.3224 16.5187 12.4597L19.3657 15.3066C19.5029 15.444 19.58 15.6302 19.58 15.8243C19.58 16.0184 19.5029 16.2046 19.3657 16.342L16.5184 19.1886C16.3811 19.3259 16.1949 19.4029 16.0008 19.4029C15.8066 19.4029 15.6204 19.3259 15.4831 19.1886L12.6364 16.342Z" fill="#21BF73"/>
</svg>
