<svg width="50" height="50" viewBox="0 0 50 50" fill="none" xmlns="http://www.w3.org/2000/svg">
<circle cx="25" cy="25" r="25" fill="#FFA36A"/>
<circle cx="25" cy="25" r="25" fill="url(#paint0_radial_1539_10649)"/>
<path opacity="0.2" d="M23.9583 50L45.8333 15.625L47.9166 18.2292L48.4374 22.3958L30.7291 48.9583L23.9583 50Z" fill="#FF5C59"/>
<path opacity="0.1" d="M38.5416 20.8334L34.3749 3.12508C35.243 2.43064 29.6874 1.04175 24.9999 1.04175C15.6249 1.04175 8.85409 6.94453 6.77075 9.89591L0.520752 23.4376L2.08325 29.1667L38.5416 20.8334Z" fill="white"/>
<path opacity="0.2" d="M11.4583 13.0208L18.7499 1.5625H23.9583L13.0208 20.8333L11.4583 13.0208Z" fill="#FF5C59"/>
<path d="M25.6226 19.2264C24.78 20.069 24.0381 20.9432 23.4165 21.8114L19.9159 22.6027C19.8725 22.6125 19.8311 22.6362 19.8015 22.6717L17.6171 25.1936C17.5322 25.2902 17.5756 25.4442 17.698 25.4817L21.2163 26.5965C21.1236 27.2596 21.167 27.8456 21.3604 28.3231L20.2593 29.4242C20.1685 29.515 20.1685 29.663 20.2593 29.7538L21.0012 30.4957C21.092 30.5865 21.24 30.5865 21.3308 30.4957L22.4318 29.3946C22.9074 29.588 23.4954 29.6314 24.1584 29.5387L25.2733 33.057C25.3128 33.1793 25.4647 33.2228 25.5614 33.1379L28.0832 30.9535C28.1168 30.9239 28.1405 30.8844 28.1523 30.8391L28.9436 27.3385C29.8098 26.7149 30.684 25.975 31.5286 25.1324C35.2797 21.3812 35.8559 15.8778 35.3665 15.3884C34.8772 14.8991 29.3738 15.4772 25.6226 19.2264ZM29.5257 23.909C28.7857 24.6489 27.584 24.6489 26.844 23.909C26.1041 23.169 26.1041 21.9673 26.844 21.2273C27.584 20.4873 28.7857 20.4873 29.5257 21.2273C30.2657 21.9673 30.2657 23.169 29.5257 23.909Z" fill="#E43B2A"/>
<path d="M25.4173 19.016C24.5747 19.8586 23.8327 20.7327 23.2112 21.6009L19.7106 22.3922C19.6672 22.4021 19.6258 22.4258 19.5962 22.4613L17.4118 24.9831C17.3269 25.0798 17.3703 25.2337 17.4927 25.2712L21.011 26.3861C20.9182 27.0491 20.9616 27.6352 21.155 28.1127L20.0539 29.2138C19.9632 29.3045 19.9632 29.4525 20.0539 29.5433L20.7959 30.2853C20.8867 30.376 21.0347 30.376 21.1254 30.2853L22.2265 29.1842C22.7021 29.3776 23.2901 29.421 23.9531 29.3282L25.068 32.8465C25.1075 32.9689 25.2594 33.0123 25.3561 32.9275L27.8779 30.7431C27.9115 30.7135 27.9352 30.674 27.947 30.6286L28.7383 27.128C29.6045 26.5045 30.4787 25.7645 31.3232 24.9219C35.0744 21.1708 35.6506 15.6674 35.1612 15.178C34.6719 14.6886 29.1684 15.2668 25.4173 19.016ZM29.3204 23.6985C28.5804 24.4385 27.3787 24.4385 26.6387 23.6985C25.8987 22.9585 25.8987 21.7568 26.6387 21.0169C27.3787 20.2769 28.5804 20.2769 29.3204 21.0169C30.0603 21.7568 30.0603 22.9585 29.3204 23.6985Z" fill="white"/>
<path d="M18.9136 31.4237C18.6709 31.181 18.2762 31.181 18.0335 31.4237L7.85938 41.5979C8.14944 41.8939 8.44741 42.1839 8.75326 42.4641L18.9136 32.3038C19.1563 32.0611 19.1563 31.6664 18.9136 31.4237Z" fill="white"/>
<path d="M18.7239 34.8356C18.4812 34.5929 18.0866 34.5929 17.8439 34.8356L9.53052 43.1489C9.85019 43.4173 10.1758 43.6798 10.5093 43.9304L18.7239 35.7157C18.9666 35.473 18.9666 35.0783 18.7239 34.8356Z" fill="white"/>
<path d="M15.5017 31.6151C15.259 31.3724 14.8643 31.3724 14.6216 31.6151L6.3418 39.8949C6.60424 40.2186 6.8726 40.5362 7.15083 40.8461L15.5017 32.4952C15.7444 32.2525 15.7444 31.8578 15.5017 31.6151Z" fill="white"/>
<path fill-rule="evenodd" clip-rule="evenodd" d="M25 47.9167C37.6565 47.9167 47.9167 37.6565 47.9167 25C47.9167 12.3435 37.6565 2.08333 25 2.08333C12.3435 2.08333 2.08333 12.3435 2.08333 25C2.08333 37.6565 12.3435 47.9167 25 47.9167ZM25 50C38.8071 50 50 38.8071 50 25C50 11.1929 38.8071 0 25 0C11.1929 0 0 11.1929 0 25C0 38.8071 11.1929 50 25 50Z" fill="#FFD48A"/>
<defs>
<radialGradient id="paint0_radial_1539_10649" cx="0" cy="0" r="1" gradientUnits="userSpaceOnUse" gradientTransform="translate(25 25) rotate(90) scale(25)">
<stop offset="0.796875" stop-color="#FF5C59" stop-opacity="0"/>
<stop offset="1" stop-color="#FF5C59"/>
</radialGradient>
</defs>
</svg>
