<svg width="41" height="40" viewBox="0 0 41 40" fill="none" xmlns="http://www.w3.org/2000/svg">
<circle cx="20.5" cy="20" r="20" fill="white"/>
<path fill-rule="evenodd" clip-rule="evenodd" d="M8.45508 4.03211C8.50782 3.99226 8.56077 3.95267 8.61392 3.91333L10.718 5.96818L13.7699 9.35776L15.2924 11.0566C15.4311 11.2135 15.5697 11.369 15.7083 11.5244L15.7119 11.5285L15.712 11.5285C16.0772 11.938 16.4425 12.3475 16.8077 12.7819L16.8906 12.8834L16.9088 13.0407C16.9333 13.254 16.921 13.47 16.8724 13.679C16.8163 13.8953 16.7185 14.0984 16.5845 14.2768C16.3349 14.6021 16.0046 14.8558 15.6267 15.0126C15.2869 15.1597 14.9269 15.2548 14.5589 15.2947C14.4848 15.3041 14.4082 15.31 14.3337 15.3157L14.3288 15.316L14.3164 15.317C14.0834 15.3259 13.8593 15.4095 13.677 15.5556C13.4946 15.7017 13.3636 15.9026 13.3032 16.1289C13.2755 16.2415 13.2549 16.3557 13.2416 16.4709C13.2205 16.6438 13.2096 16.8209 13.1979 17.0123L13.1977 17.0148C13.1893 17.1528 13.1803 17.2984 13.1668 17.4553C13.0876 18.0943 12.9036 18.7157 12.6223 19.2942C12.5648 19.4158 12.5062 19.5337 12.4485 19.6495L12.4483 19.6499C12.14 20.2704 11.8614 20.8309 11.9413 21.5816C12.004 22.1602 12.299 22.5478 12.691 22.9477C12.877 23.1387 13.1235 23.302 13.3794 23.4715L13.3802 23.472C14.0974 23.9468 14.8881 24.4703 14.6276 25.7892C14.4144 26.8579 12.6506 27.9793 10.1714 28.371C10.4117 28.3344 9.88287 27.4277 9.82352 27.3259L9.82341 27.3257L9.81984 27.3196C9.7531 27.2146 9.68474 27.1111 9.61652 27.0078L9.61162 27.0004L9.60888 26.9962C9.40805 26.6922 9.20816 26.3896 9.05211 26.0541C8.63792 25.1743 8.44592 24.1563 8.61561 23.1922C8.76932 22.3199 9.34337 21.623 9.89608 20.952L9.89653 20.9514C9.98672 20.842 10.0763 20.7334 10.1633 20.6247C10.9029 19.7022 11.6787 18.4935 11.8504 17.296C11.8649 17.1919 11.8779 17.0785 11.8915 16.9591L11.8919 16.955C11.9162 16.7425 11.9425 16.5114 11.9838 16.2811C12.0454 15.8809 12.1703 15.493 12.3536 15.1323C12.4786 14.8958 12.6434 14.6826 12.8405 14.5021C12.9433 14.4063 13.0111 14.2786 13.0331 14.1395C13.055 14.0004 13.0299 13.8579 12.9617 13.7348L9.00964 6.59434L14.6862 13.6313C14.7509 13.7129 14.8325 13.7792 14.9255 13.8254C15.0185 13.8716 15.1206 13.8967 15.2242 13.899C15.328 13.9012 15.431 13.8805 15.5258 13.8382C15.6207 13.796 15.7052 13.7333 15.7733 13.6547C15.8452 13.5705 15.8859 13.4639 15.8887 13.3529C15.8915 13.242 15.856 13.1335 15.7883 13.0458C15.5286 12.7123 15.2585 12.3745 14.9894 12.038L14.9764 12.0216C14.8657 11.8833 14.7552 11.745 14.6458 11.6077L13.2173 9.83177L10.3502 6.28581L8.45508 4.03211ZM31.4775 16.0747L31.4715 16.0655C31.379 15.893 31.2737 15.7278 31.1563 15.5712C30.8109 15.1013 30.3156 14.7647 29.753 14.6173C29.3785 14.5202 28.9955 14.4597 28.6094 14.4367C28.3304 14.4164 28.047 14.4023 27.7613 14.3881L27.7527 14.3877L27.7321 14.3867C27.6272 14.3815 27.5218 14.3763 27.4163 14.3707C26.6081 14.326 25.7808 14.2429 24.9725 14.0115C24.7705 13.9536 24.5685 13.8906 24.3734 13.8146C24.2724 13.778 24.1784 13.7385 24.0785 13.6958C23.9785 13.6532 23.8764 13.6045 23.7754 13.5528C23.3953 13.3436 23.0433 13.0868 22.7277 12.7886C22.1546 12.2529 21.6945 11.651 21.2425 11.0598L21.2424 11.0596L21.1266 10.908C20.6646 10.2662 20.1689 9.6497 19.6414 9.06104C19.1211 8.48437 18.506 8.00174 17.823 7.63414C17.1159 7.27629 16.3477 7.05597 15.559 6.98463C16.3772 6.89538 17.2048 6.99682 17.9776 7.28098C18.7574 7.58511 19.4702 8.0398 20.0759 8.61956C20.4713 8.99204 20.8425 9.38964 21.1871 9.80992C23.7532 9.30254 25.8343 9.75311 27.4335 10.6279L27.4699 10.6462C27.9788 10.9235 28.4559 11.2564 28.8923 11.6387C28.962 11.6996 29.0306 11.7605 29.0943 11.8224C29.4349 12.1368 29.752 12.476 30.043 12.8373L30.0652 12.8667C31.0097 14.0683 31.4764 15.3175 31.4775 16.0747ZM28.9907 11.7187C29.0292 11.7535 29.0678 11.7884 29.1057 11.8236C29.0601 11.7847 29.0139 11.7419 28.9677 11.699L28.9642 11.6957C28.944 11.677 28.9239 11.6583 28.9037 11.6399C28.9298 11.6637 28.9562 11.6875 28.9826 11.7114L28.9907 11.7187ZM23.1827 14.0196C22.778 17.1299 25.4966 18.2382 28.0956 19.2976L28.0959 19.2977C30.3745 20.2265 32.561 21.1179 32.4699 23.2883C33.4802 21.9689 33.9145 18.3845 30.9405 16.5395C29.6801 15.757 28.238 15.5504 26.8941 15.3579L26.8938 15.3578C25.4124 15.1455 24.0504 14.9503 23.1827 14.0196ZM19.119 16.1606C19.7726 17.3166 18.3107 17.6748 17.6247 17.7408C16.5852 17.8423 16.3701 17.2405 16.5731 16.4844C16.6397 16.2137 16.7876 15.9702 16.9967 15.7869C17.2058 15.6035 17.466 15.4892 17.7419 15.4594C18.0139 15.4344 18.2874 15.4869 18.5309 15.6109C18.7745 15.735 18.9783 15.9255 19.119 16.1606ZM15.6748 7.73858C16.3295 7.83392 16.9973 8.09577 17.4276 8.59509C17.858 9.09441 18.0166 9.74392 18.1409 10.3619C18.1577 10.4416 18.174 10.522 18.1902 10.6019L18.1903 10.6024L18.1904 10.6033C18.2717 11.0036 18.3531 11.4051 18.5096 11.7827C18.5689 11.9271 18.6463 12.0598 18.7238 12.1927C18.765 12.2634 18.8064 12.3343 18.845 12.4068C18.8832 12.4789 18.9344 12.5479 18.9858 12.6173C19.0584 12.7152 19.1314 12.8138 19.1693 12.9225C19.1808 12.9491 19.1851 12.9783 19.1818 13.0072C19.1784 13.0361 19.1674 13.0636 19.1501 13.0868C18.9218 13.3405 18.3055 13.0584 18.0732 12.9448C17.6714 12.7447 17.3117 12.4692 17.0134 12.1329C16.0809 11.0926 15.5991 9.5957 15.6284 8.23284C15.6349 8.06736 15.6503 7.90236 15.6748 7.73858ZM28.1019 24.4908C27.0315 22.9194 25.9548 21.3386 26.6224 19.4671C27.0888 19.7897 27.6318 20.0834 28.1915 20.3861C29.6341 21.1664 31.1883 22.0072 31.8332 23.558C32.8566 26.0099 31.6857 29.1001 29.2196 30.1231C30.4886 27.9947 29.2993 26.2486 28.102 24.4909L28.1019 24.4908ZM18.1524 24.6501C18.5378 24.3583 18.9592 24.1178 19.4061 23.9346C19.8582 23.7528 20.3273 23.6168 20.8063 23.5287C21.1041 23.4718 21.401 23.4283 21.6924 23.3856L21.6927 23.3856C22.3316 23.292 22.945 23.2022 23.4875 22.9827C23.8779 22.8296 24.237 22.6061 24.5473 22.323C24.8475 22.0428 25.0774 21.695 25.2181 21.3082C25.3621 20.9001 25.4206 20.4665 25.3898 20.0346C25.3541 19.5706 25.2496 19.1147 25.0797 18.6817C25.4318 19.0497 25.6882 19.4991 25.8262 19.9904C25.9641 20.4816 25.9794 20.9993 25.8707 21.4979C25.7471 22.0257 25.4803 22.5087 25.0998 22.8934C24.7233 23.266 24.2693 23.5502 23.7703 23.7255C23.2943 23.8933 22.7978 23.9957 22.2944 24.0301C21.9886 24.0556 21.6887 24.0695 21.3938 24.0831L21.3902 24.0833L21.3833 24.0836C21.2143 24.0915 21.0466 24.0993 20.8801 24.1092C19.9487 24.1485 19.0288 24.3308 18.1524 24.6501ZM27.1104 31.6955L27.1533 31.661L27.2005 31.6231C26.8723 31.773 26.5302 31.8903 26.1792 31.9731C26.0098 32.0101 25.8379 32.0348 25.665 32.0472L25.4134 32.0412C25.3321 32.0338 25.2511 32.0223 25.171 32.0066C23.9093 31.7853 23.7391 30.5149 23.5918 29.414C23.5596 29.1724 23.5283 28.9391 23.4868 28.7266C23.4095 28.3319 23.2889 27.947 23.1272 27.5788C22.9481 27.1857 22.6949 26.8311 22.3817 26.5346C22.0651 26.252 21.7021 26.0267 21.3088 25.8688C20.9334 25.7153 20.5393 25.613 20.1369 25.5644C19.3552 25.4686 18.5623 25.5297 17.8043 25.744C17.0731 25.9496 16.372 26.2509 15.7191 26.6401C15.0831 27.0256 14.4875 27.4744 13.9411 27.9797C13.9834 27.9403 14.2239 27.9822 14.3715 28.008L14.3786 28.0093C14.4212 28.0167 14.4553 28.0226 14.4735 28.0244C14.6503 28.0467 14.827 28.0731 15.0019 28.1096C15.3493 28.1758 15.6882 28.2814 16.012 28.4243C16.4816 28.6533 16.9066 28.965 17.2668 29.3447C17.3431 29.4201 17.4162 29.4986 17.4881 29.5781C17.6483 29.7898 17.83 29.9839 18.0301 30.1574C18.0807 30.2042 18.1328 30.2494 18.1872 30.2926C18.4814 30.53 18.8338 30.6836 19.2075 30.7371C19.4736 30.7701 19.7437 30.742 19.9975 30.6549C20.1227 30.6128 20.2424 30.5559 20.3541 30.4854C20.4668 30.4141 20.5689 30.3269 20.6571 30.2267C20.8234 30.0316 20.9343 29.7954 20.9784 29.5426C21.024 29.2999 21.0012 29.0494 20.9128 28.819C20.8275 28.5952 20.6591 28.4132 20.443 28.3116C20.6288 28.438 20.7586 28.6318 20.8047 28.8525C20.8475 29.0636 20.831 29.2825 20.7572 29.4848C20.6901 29.6788 20.5718 29.8506 20.4147 29.9821C20.3399 30.0441 20.2565 30.095 20.1672 30.1333C20.0776 30.1698 19.984 30.1957 19.8884 30.2103C18.764 30.4002 17.882 29.0595 18.4963 28.1025C18.7296 27.7361 19.1236 27.5464 19.5439 27.4936C20.5744 27.3678 21.4543 28.0467 21.9684 28.89C22.1898 29.2529 22.3541 29.6458 22.5185 30.0386L22.5185 30.0386C22.6212 30.2841 22.7238 30.5295 22.8403 30.7675C23.2848 31.6759 24.0446 32.4796 25.1194 32.4998C25.5163 32.5031 25.9083 32.4139 26.2651 32.239C26.4364 32.1596 26.6014 32.0673 26.759 31.963C26.8809 31.8809 26.9941 31.7895 27.1054 31.6996L27.1104 31.6955ZM17.6461 29.7552C17.6152 29.7211 17.5846 29.6868 17.5544 29.6521L17.6082 29.7126L17.6461 29.7552Z" fill="#FC72FF"/>
</svg>
