<svg width="48" height="48" viewBox="0 0 48 48" fill="none" xmlns="http://www.w3.org/2000/svg"><circle cx="24" cy="24" r="24" fill="#101214"/><path fill-rule="evenodd" clip-rule="evenodd" d="M23.68 10.77c.396.05.766-.093 1.105-.299a1.65 1.65 0 0 0 .66-.695l.015-.026c.075-.14.152-.284.136-.453l.012-.019a.148.148 0 0 0 .02-.04c.075-.293.038-.581-.032-.869a1.32 1.32 0 0 0-.238-.534 1.734 1.734 0 0 0-.554-.563c-.347-.229-.73-.284-1.136-.27a1.6 1.6 0 0 0-.506.097c-.261.096-.49.257-.695.469-.179.184-.31.387-.397.608-.086.22-.126.459-.122.712.005.284.07.556.203.82.322.64.849.975 1.531 1.061h-.002zm1.486 7.724l.128.062.394.188.066.033.066.033.132.063.202.09c.23.102.46.204.692.3.497.207.995.41 1.495.608.105.043.213.08.32.116l.13.044.195.066.099.034c.07.026.14.05.21.071.118.035.237.067.355.1l.22.06.125.046c.096.035.193.07.292.095.365.092.731.179 1.098.261.245.055.49.103.737.149.076.014.153.023.23.031l.097.011.116.03v.001c.091.025.183.05.276.068.127.024.255.045.393.066l.185.03.013-.048c.013-.045.028-.1.038-.155.008-.043.01-.086.014-.13.003-.038.006-.077.012-.114a8.192 8.192 0 0 1 .138-.785l.034-.163c.01-.046.018-.093.026-.14l.002-.008.015-.08.08-.293.088-.324-.162-.037c-.104-.023-.198-.044-.293-.062-.101-.02-.202-.037-.303-.054-.172-.03-.344-.06-.514-.098-.205-.046-.408-.1-.61-.155l-.305-.08a.547.547 0 0 0-.085-.013l-.043-.005a38.572 38.572 0 0 0-.566-.168l-.696-.203-.697-.204-.018-.009c-.015-.007-.03-.014-.047-.02l-.266-.093-1.03-.358a12.768 12.768 0 0 0-.19-.049l-.014-.006-.01-.004a.754.754 0 0 0-.024-.01c-.069-.044-.147-.064-.226-.084l-.09-.025a.47.47 0 0 1-.178-.094c-.008-.008-.022-.01-.036-.011a.146.146 0 0 1-.02-.003 11.826 11.826 0 0 1-.19-.068c-.001-.003-.003-.006-.005-.007a.009.009 0 0 0-.009 0l-.017-.01a.444.444 0 0 0-.016-.008l-.537-.2a3.68 3.68 0 0 1-.076-.04c-.056-.028-.11-.057-.168-.08a90.812 90.812 0 0 0-.628-.257 76.793 76.793 0 0 1-1.677-.7v.001c-.07-.03-.138-.06-.203-.098-.113-.063-.215-.051-.327.003a9.2 9.2 0 0 1-.498.22l-.466.193-.318.13-.003.001-1.53.635-.317.134-.13.056-.09.033-.092.033-.653.247-.17.058c-.124.042-.247.083-.37.126l-.147.053-.085.03c-.076.03-.154.058-.23.086l-.025.012a.767.767 0 0 1-.024.012l-.014.007-.01.005-.024.012-.083.023-.108.03-.111.034-.077.024-.36.112a.826.826 0 0 0-.098.038l-.098.032h-.002v.001h-.002l-.023.01-.022.01-.025.005a.928.928 0 0 0-.025.003l-.046.003h-.003l-.173.052c-.1.03-.2.061-.3.088-.468.125-.938.248-1.407.37l-.45.113-.226.056-.061.001-.275.06-.274.059-.117.023c-.082.015-.162.03-.242.049-.136.03-.145.056-.074.181.011.02.02.043.025.066l.103.42.008.083c.007.062.013.124.024.185.03.169.064.337.097.505l.037.195.021.106c.028.14.056.282.081.423.015.087.065.092.138.076.064-.014.129-.026.193-.037.058-.01.117-.02.174-.033l.345-.075.213-.047.05-.001a.572.572 0 0 0 .114-.01l.235-.05c.495-.107.99-.213 1.483-.328.16-.038.318-.087.475-.137l.221-.068.284-.092a27.901 27.901 0 0 0 1.572-.54c.217-.08.433-.17.648-.261.36-.153.722-.306 1.079-.465.245-.11.49-.223.735-.335.191-.088.383-.177.575-.264.21-.095.422-.188.634-.28l.346-.153a.895.895 0 0 1 .491.097c.207.098.417.189.627.279l.241.104.084.033.085.033.003.004zm-2.102 19.21l-.002-.651-.002-.435V30.51l-.048.012c-.04.01-.074.02-.108.032l-.2.074a7.5 7.5 0 0 1-.316.115c-.408.136-.817.27-1.228.398-.16.05-.32.098-.481.145l-.408.121c-.03.01-.068.055-.069.083-.003.15-.001.3 0 .45v.001l.002.134v2.497a.56.56 0 0 0-.042-.015.224.224 0 0 1-.09-.046 5.42 5.42 0 0 1-.213-.238 12.494 12.494 0 0 0-.082-.096 1.638 1.638 0 0 0-.092-.125 23.22 23.22 0 0 1-1.855-2.646l-.012-.026a1.139 1.139 0 0 0-.035-.069l-.091-.167a9.134 9.134 0 0 0-.27-.473c-.066-.104-.017-.148.056-.199.047-.007.093-.012.14-.017.101-.012.202-.024.3-.048.163-.04.325-.086.488-.132.163-.046.325-.091.489-.132.12-.03.244-.055.366-.08.136-.028.273-.055.407-.09.261-.068.52-.148.778-.228l.091-.028c.166-.052.33-.106.496-.16l.312-.101.2-.062c.121-.037.242-.074.361-.116.36-.124.716-.253 1.07-.387a.16.16 0 0 0 .085-.116c.006-.118.004-.237.002-.356l-.002-.146v-9.07l-.058.027c-.035.016-.066.03-.095.047-.095.052-.19.105-.284.159-.185.104-.37.208-.558.304-.196.099-.392.195-.59.289l-.297.14-.297.141-.25.107-.25.105-.097.042-.137.058-.668.239-.69.242-.167.053-.193.068-.193.067-.058.019-.097.029-.361.086-.467.112c-.114.028-.227.058-.34.088-.213.057-.426.113-.641.158-.452.095-.906.182-1.363.252-.32.049-.643.086-.966.123-.136.015-.271.03-.407.047l-.096.026-.04.001c-.025 0-.051.001-.078.005l-.183.023c-.11.015-.219.029-.329.036-.19.012-.379.018-.577.025a60.13 60.13 0 0 0-.234.008l.01.133c.007.094.013.184.024.274l.035.307c.032.284.064.569.115.85.022.118.036.238.05.357.032.255.063.51.16.75l.032.165c.044.229.088.458.134.686.046.228.093.456.15.682.01.038.072.087.114.09.1.007.199.004.299 0a9.2 9.2 0 0 1 .105-.003l.039-.001c.038-.001.076-.002.114-.007l.254-.03.418-.051c.204-.023.409-.043.613-.063l.139-.014.203-.03c.154-.022.308-.045.462-.06.148-.014.17-.032.126-.181l-.075-.25-.085-.289-.035-.12-.035-.119-.039-.166a1.645 1.645 0 0 1-.006-.055c-.005-.042-.01-.085-.021-.126-.043-.152-.037-.166.116-.192l.08-.01.025-.002.143-.02c.108-.015.216-.03.321-.051.168-.035.334-.076.5-.117.069-.018.137-.034.206-.05l.03.001c.023.003.044.005.064 0 .406-.1.812-.203 1.218-.306h.002l.01-.002.088-.013.044-.012.621-.172.265-.075.031-.012.15-.045c.116-.035.232-.07.346-.107.14-.045.279-.092.417-.138l.153-.051.015.033.005.011.007.014c.02.04.04.079.04.12.006.288.007.577.007.866l.001.346v.352c0 .392 0 .783-.006 1.174 0 .045-.012.09-.026.134l-.007.02-.007.023c-.01.03-.02.06-.028.09l-.017.008a.317.317 0 0 1-.032.016 1.692 1.692 0 0 1-.065.011l-.034.006a.854.854 0 0 0-.098.022l-.333.098c-.194.058-.388.116-.584.168-.116.032-.235.056-.353.081-.096.02-.192.04-.287.064-.14.034-.278.07-.417.107h-.001c-.164.043-.327.085-.492.124a3.74 3.74 0 0 1-.294.054l-.182.03c-.05.01-.102.022-.153.034-.06.013-.121.027-.182.038-.304.053-.608.105-.912.154-.197.032-.393.06-.591.084a7.4 7.4 0 0 1-.262.023c-.117.009-.233.018-.349.034-.093.013-.186.032-.278.051-.199.041-.397.082-.604.064l-.247.017-.175.012.042.081c.026.05.05.096.068.143.088.223.175.446.261.67l.077.198.043.128c.032.1.065.2.106.295.126.289.255.575.394.857.245.504.496 1.003.748 1.503.047.091.1.18.153.268l.077.13.09.17.175.287c.404.708.857 1.382 1.343 2.034.18.242.369.48.557.718l.225.285.24.286c.181.219.363.438.554.647.24.263.489.519.737.774l.34.352c.009.01.017.02.025.032a.465.465 0 0 0 .06.067l.204.19c.18.168.362.337.552.494.544.453 1.093.898 1.645 1.339.252.201.508.396.764.591l.311.237c.014.01.03.016.05.023l.037.013v-3.271l-.003-.005zM34.81 22.302h.774l.007.051c.004.026.007.045.005.064l-.087.868-.015.148c-.01.115-.022.23-.04.342-.016.113-.038.224-.06.336l-.04.207-.053.308c-.035.208-.07.416-.11.623a6.515 6.515 0 0 1-.098.398l-.049.189-.03.115c-.025.096-.05.192-.072.288-.02.08-.037.162-.055.243a8.375 8.375 0 0 1-.111.464 5.692 5.692 0 0 1-.122.367c-.031.088-.063.177-.091.266-.016.05-.026.1-.036.152-.01.053-.021.106-.038.158-.081.25-.164.5-.257.746-.068.181-.141.361-.215.54v.001a42.42 42.42 0 0 0-.113.278l-.054.138c-.043.112-.086.223-.134.332-.063.147-.13.294-.196.44l-.093.206a7.9 7.9 0 0 0-.033.085c-.031.084-.063.167-.1.248-.012.025-.063.048-.095.046-.107-.007-.213-.02-.32-.033l-.119-.013-.647-.074-.155-.025a40.971 40.971 0 0 1-.311-.05c-.052-.008-.104-.019-.156-.029a6.209 6.209 0 0 0-.094-.018l-.451-.068-.251-.037a.177.177 0 0 0-.022.096c.002.03.011.058.025.086a.53.53 0 0 0 .02.041l.013.022c.018.034.037.067.045.103a.304.304 0 0 1 .008.013l.009.013a.087.087 0 0 0 .003.012.228.228 0 0 1 .003.012c.064.127.13.25.2.372a7.944 7.944 0 0 0 .719 1.036l.05.055.032.035.082.09.034.036.133.14c.119.122.14.23.017.348a.627.627 0 0 0-.12.184c-.027.053-.053.105-.09.15a.33.33 0 0 0-.03.044 1.81 1.81 0 0 1-.026.045l-.225.344c-.167.257-.333.513-.51.762a24.921 24.921 0 0 1-1.963 2.425c-.03.031-.057.064-.084.098l-.02.024-.019.022-.052.04a.5.5 0 0 1 .004-.02l.003-.015-.001-.01-.002-.013-.002-.012a.503.503 0 0 1-.002-.01v-.168c.002-.01.002-.018.002-.028l.002-1.42c0-.033.002-.066.004-.098l.001-.034v-1.793c.006-.143-.063-.258-.133-.374l-.01-.016-.223-.378a85.447 85.447 0 0 0-.11-.19c-.009-.015-.016-.031-.024-.047l-.024-.048v-.003a11.836 11.836 0 0 0-.1-.201l-.02-.041-.02-.042-.002-.012-.002-.013-.013-.013a.872.872 0 0 0-.03-.034l-.008-.019-.01-.027a2.892 2.892 0 0 1-.018-.046 18.987 18.987 0 0 0-.065-.144l-.045-.098-.04-.106-.039-.107-.018-.05-.034-.084-.033-.084a43.883 43.883 0 0 0-.086-.26c-.065-.198-.131-.396-.191-.596-.024-.08-.036-.163-.048-.246-.005-.039-.01-.077-.017-.115l-.118.167-.004.022-.002.014-.006.038-.01.066-.02.124-.003 2.102v2.08c.002.016.002.032.002.048v.135c-.002.043-.002.085-.002.127l.002.393c.002.218.004.436.004.654 0 .346-.002.69-.004 1.036l-.002.69.002.025v.07a16.954 16.954 0 0 1-.003.287V38.457c.057.235-.089.355-.234.475a3.676 3.676 0 0 1-.222.182v.001a7.256 7.256 0 0 0-.087.069l-.318.262a26.68 26.68 0 0 1-.64.52c-.205.16-.415.314-.624.469-.143.105-.286.21-.427.317-.062.046-.118.097-.184.156L24.57 41v-1.97l-.001-.42c-.002-.42-.004-.839-.004-1.258 0-.24.001-.483.003-.724l.001-.18-.002-.32v-.001a46.975 46.975 0 0 1-.003-.429l-.001-2.143.003-.096.002-.047-.003-.415-.003-.693v-2.526-1.685c0-.029.002-.058.004-.087l.002-.043-.002-.455v-.001a3609.18 3609.18 0 0 1-.006-5.569l.003-.063.002-.032-.002-.533a422.224 422.224 0 0 1-.002-1.614v-.41l-.001-.005c-.002-.005-.003-.009-.003-.014 0-.002.002-.003.004-.005a.032.032 0 0 0 .003-.002l.028-.011c.021-.01.042-.019.055-.012.135.072.268.146.401.22.237.133.474.265.717.384.398.194.802.375 1.206.556l.35.158c.077.035.115.064.1.166-.017.099-.015.2-.013.301v.916l.003.144v.072l-.002.143v.12l.002.515a197.154 197.154 0 0 1 0 2.095l-.001.425v.248c0 .302 0 .605.007.907 0 .053.02.106.04.159.01.024.018.049.025.073l.179.06a11.366 11.366 0 0 0 .824.25c.284.074.568.145.853.214l.18.044c.27.066.54.131.811.188.224.048.45.088.674.128l.269.048c.033.006.065.011.099.015l.088.012.011.002c.069-.101.119-.208.159-.32.038-.105.069-.214.1-.322.023-.082.046-.164.072-.244.025-.076.047-.152.068-.228.02-.069.039-.138.06-.206.009-.024.026-.044.044-.065a.458.458 0 0 0 .025-.03c.016-.06.034-.119.053-.178.041-.131.082-.263.093-.396.009-.118.046-.23.084-.34.054-.16.108-.319.076-.493-.004-.026-.017-.05-.03-.073l-.016-.029-.104-.011a4.59 4.59 0 0 1-.282-.035 48.136 48.136 0 0 1-.827-.143c-.172-.03-.199-.068-.199-.25a1.16 1.16 0 0 0-.002-.083l-.002-.005c-.003-.004-.005-.008-.006-.013 0-.001.001-.003.004-.005l.002-.003v-.331c-.002-.007-.006-.013-.007-.02l.004-.004a.034.034 0 0 0 .003-.003l.007-.166v-1.147l-.002-.358c0-.179 0-.358-.003-.537 0-.096.04-.095.121-.075.336.08.673.155 1.012.226.232.049.465.096.699.13.259.037.52.067.78.098l.305.037 1.05.124zM22.79 15.087l-.675.292h-.001c-.267.114-.534.227-.801.338a.455.455 0 0 1-.095.026l-.046.01.007-.037c.006-.03.012-.06.02-.09l.03-.115c.048-.183.096-.366.15-.547.045-.15.093-.3.141-.45l.072-.223.036-.12c.032-.102.064-.205.092-.31.01-.04.017-.083.024-.125.006-.043.012-.085.023-.126a129.464 129.464 0 0 1 .5-1.767l.045-.159c.002-.007.008-.014.014-.02a.131.131 0 0 0 .007-.008l.04-.116.002-.007a8.655 8.655 0 0 1 .114-.46c.033-.12.072-.13.178-.064.285.177.597.25.928.296.245.034.475-.01.705-.054.073-.015.147-.029.221-.04l.222-.1.344-.153.039.158a9.104 9.104 0 0 0 .217.77l.043.14a.072.072 0 0 0 .008.017l.007.016.195.777a.92.92 0 0 0 .026.08 14.512 14.512 0 0 0 .09.25l.02.07.027.109c.01.036.02.072.028.107l.072.335.025.072.025.071.088.289.028.08.028.08a82.866 82.866 0 0 1 .365 1.234c.008.026.01.053.014.08l.002.013c.007.07-.008.103-.09.066a150.04 150.04 0 0 0-1.06-.467l-.218-.096-.068-.02a2.246 2.246 0 0 1-.058-.035.013.013 0 0 1-.008 0l-.006-.007-.017-.012-.01-.007a39.9 39.9 0 0 1-.191-.077l-.191-.077c-.05-.02-.1-.04-.15-.058-.119-.046-.238-.091-.35-.15a.458.458 0 0 0-.45-.012.272.272 0 0 1-.05.02 2.99 2.99 0 0 0-.084.03l-.033.013-.08.037-.08.038-.45.195z" fill="url(#paint0_linear_811_4574)"/><defs><linearGradient id="paint0_linear_811_4574" x1="23.9" y1="7" x2="23.9" y2="41" gradientUnits="userSpaceOnUse"><stop stop-color="#DF9242"/><stop offset="1" stop-color="#AA6424"/></linearGradient></defs></svg>