<svg width="24" height="20" viewBox="0 0 24 20" fill="none" xmlns="http://www.w3.org/2000/svg">
<path d="M9.33168 4.39554C8.99645 4.39554 8.72656 4.10769 8.72656 3.75688V1.83788C8.72656 1.48407 8.99929 1.19922 9.33168 1.19922C9.66406 1.19922 9.93679 1.48707 9.93679 1.83788V3.75688C9.93963 4.11069 9.6669 4.39554 9.33168 4.39554Z" fill="#7B808E"/>
<path d="M5.33333 6.3762V11.2959H1.18611L1.18333 11.293V6.37908C1.18333 6.37908 1.18333 6.3762 1.18611 6.3762H5.33333ZM6.69167 5.14844H1.18611C0.533333 5.14844 0 5.70179 0 6.37908V11.2959C0 11.9732 0.533333 12.5265 1.18611 12.5265H6.69167C6.57778 12.2239 6.51944 11.8982 6.51944 11.5553V6.11969C6.51944 5.77385 6.57778 5.44817 6.69167 5.14844ZM19.4639 6.3762C20.3556 6.3762 21.1944 6.73934 21.8306 7.39933C22.4667 8.05932 22.8167 8.92971 22.8167 9.85485V13.1404H19.2611V13.0367C19.2611 12.0769 18.5083 11.2959 17.5833 11.2959H13.6306V6.3762H19.4639ZM19.4639 5.14844H12.2722C12.3861 5.45105 12.4444 5.77673 12.4444 6.11969V11.5553C12.4444 11.8982 12.3861 12.2268 12.2722 12.5265H17.5806C17.8528 12.5265 18.075 12.7571 18.075 13.0395V13.7197C18.075 14.0771 18.3583 14.371 18.7028 14.371H23.2944C23.6833 14.371 24 14.0425 24 13.639V9.85485C24 7.26676 21.9583 5.14844 19.4639 5.14844Z" fill="#7B808E"/>
<path d="M5 1L14 1" stroke="#7B808E" stroke-width="1.4" stroke-linecap="round"/>
<path d="M11.09 4.60052C11.7322 4.60052 12.3127 5.01234 12.5314 5.62297L12.5342 5.63433L12.537 5.64569C12.5987 5.80474 12.6296 5.98083 12.6296 6.16544V11.5219C12.6296 11.7065 12.5987 11.8798 12.537 12.0417L12.5342 12.053L12.5314 12.0644C12.3099 12.675 11.7322 13.0868 11.09 13.0868H8.19302C7.55081 13.0868 6.9703 12.675 6.75156 12.0644L6.74876 12.053L6.74595 12.0417C6.68425 11.8826 6.65341 11.7065 6.65341 11.5219V6.16544C6.65341 5.98083 6.68425 5.80758 6.74595 5.64569L6.74876 5.63433L6.75156 5.62297C6.97311 5.01234 7.55081 4.60052 8.19302 4.60052H11.09ZM11.09 3.39062H8.19302C7.02078 3.39062 6.0084 4.14894 5.627 5.20831C5.51202 5.50653 5.45312 5.82746 5.45312 6.16544V11.5219C5.45312 11.8599 5.51202 12.1837 5.627 12.4791C6.0112 13.5384 7.02078 14.2967 8.19302 14.2967H11.09C12.2622 14.2967 13.2746 13.5384 13.656 12.4791C13.771 12.1808 13.8298 11.8599 13.8298 11.5219V6.16544C13.8298 5.82746 13.771 5.50369 13.656 5.20831C13.2718 4.1461 12.2622 3.39062 11.09 3.39062ZM19.8116 18.6517C19.4807 18.6517 19.2143 18.3791 19.2143 18.0468V16.2291C19.2143 15.894 19.4835 15.6242 19.8116 15.6242C20.1397 15.6242 20.409 15.8968 20.409 16.2291V18.0468C20.409 18.3791 20.1425 18.6517 19.8116 18.6517ZM21.6064 19.8616C21.2755 19.8616 21.0091 19.589 21.0091 19.2567V18.044C21.0091 17.7088 21.2783 17.439 21.6064 17.439C21.9345 17.439 22.2038 17.7117 22.2038 18.044V19.2567C22.2038 19.5918 21.9373 19.8616 21.6064 19.8616ZM23.4012 18.6517C23.0703 18.6517 22.8039 18.3791 22.8039 18.0468V16.8341C22.8039 16.4989 23.0731 16.2291 23.4012 16.2291C23.7294 16.2291 23.9986 16.5018 23.9986 16.8341V18.0468C23.9986 18.3791 23.7322 18.6517 23.4012 18.6517Z" fill="#7B808E"/>
</svg>
