<svg width="48" height="48" viewBox="0 0 48 48" fill="none" xmlns="http://www.w3.org/2000/svg">
<rect width="48" height="48" rx="24" fill="white"/>
<path d="M15.5 17.5H27.5C29.7091 17.5 31.5 19.2909 31.5 21.5V22.5C31.5 23.0523 31.0523 23.5 30.5 23.5H29.5C28.9477 23.5 28.5 23.0523 28.5 22.5V21.5C28.5 20.9477 28.0523 20.5 27.5 20.5H15.5" stroke="#11141A"/>
<path d="M19.5 17.5V14.5C19.5 13.9477 19.9477 13.5 20.5 13.5H28.5" stroke="#11141A"/>
<path d="M22.5 17.5V13.5" stroke="#11141A"/>
<circle cx="30" cy="28.5" r="2.5" stroke="black"/>
<path d="M28.5 30.4998C27.8928 30.9559 27.5 31.6821 27.5 32.5C27.5 33.8807 28.6193 35 30 35C31.3807 35 32.5 33.8807 32.5 32.5C32.5 31.6821 32.1072 30.9559 31.5 30.4998" stroke="black"/>
</svg>
