<svg width="14" height="14" viewBox="0 0 14 14" fill="none" xmlns="http://www.w3.org/2000/svg">
<path fill-rule="evenodd" clip-rule="evenodd" d="M0 4.97778C0 3.23539 0 2.3642 0.339091 1.6987C0.637364 1.1133 1.1133 0.637364 1.6987 0.339091C2.3642 0 3.23539 0 4.97778 0H9.02222C10.7646 0 11.6358 0 12.3013 0.339091C12.8867 0.637364 13.3626 1.1133 13.6609 1.6987C14 2.3642 14 3.23539 14 4.97778V9.02222C14 10.7646 14 11.6358 13.6609 12.3013C13.3626 12.8867 12.8867 13.3626 12.3013 13.6609C11.6358 14 10.7646 14 9.02222 14H4.97778C3.23539 14 2.3642 14 1.6987 13.6609C1.1133 13.3626 0.637364 12.8867 0.339091 12.3013C0 11.6358 0 10.7646 0 9.02222V4.97778ZM7 6.22222C7.42956 6.22222 7.77778 6.57045 7.77778 7V10.1111C7.77778 10.5407 7.42956 10.8889 7 10.8889C6.57045 10.8889 6.22222 10.5407 6.22222 10.1111V7C6.22222 6.57045 6.57045 6.22222 7 6.22222ZM7 3.11111C6.57045 3.11111 6.22222 3.45933 6.22222 3.88889C6.22222 4.31844 6.57045 4.66667 7 4.66667C7.42956 4.66667 7.77778 4.31844 7.77778 3.88889C7.77778 3.45933 7.42956 3.11111 7 3.11111Z" fill="#858c99"/>
</svg>
