<svg width="37" height="37" viewBox="0 0 37 37" fill="none" xmlns="http://www.w3.org/2000/svg">
<g id="zkJump 1" clip-path="url(#clip0_11076_4783)">
<path id="Vector" fill-rule="evenodd" clip-rule="evenodd" d="M20.6882 36.8433C29.6414 35.6627 36.5515 28.0007 36.5515 18.7248C36.5515 8.63098 28.3691 0.448364 18.2758 0.448364C8.18233 0.448364 0 8.63098 0 18.7248C0 20.9142 0.384969 23.0136 1.09091 24.9593C1.92796 24.9344 2.75743 24.543 3.30465 23.7757L7.81766 17.4482C10.9459 13.0623 16.6637 11.3778 21.67 13.3672L24.5708 14.5198C25.4307 14.7942 26.3479 14.3084 26.6043 13.4432L26.9145 12.3966C26.9145 12.3966 25.5735 11.7304 25.0413 11.1312C24.5089 10.5319 23.9674 9.0785 23.9674 9.0785C23.9674 9.0785 25.433 9.53206 26.1371 9.97949C26.8414 10.4269 27.5501 11.3548 27.5501 11.3548L31.8072 13.8588C31.8072 13.8588 31.9951 14.8985 31.4527 15.0195C30.9104 15.1406 28.8449 14.5198 28.8449 14.5198C26.3127 15.9881 25.1583 18.9376 25.5695 21.8357C25.6571 22.4544 25.695 22.9583 25.6409 23.2056C25.4214 24.2066 24.2257 25.4994 24.2257 25.4994C24.2257 25.4994 24.0999 21.1741 22.5739 19.9221C21.048 18.6703 18.0828 19.536 18.0828 19.536L19.6004 23.2924C21.1097 27.0285 19.5014 31.2368 16.0253 33.0637L20.3874 36.4708C20.5234 36.577 20.6228 36.7049 20.6882 36.8433ZM18.0585 36.9999C11.7704 36.9267 6.24572 33.6776 3.01337 28.7817C4.52751 28.174 6.10861 27.4757 7.351 26.7779C7.84954 26.4978 8.33667 26.1936 8.80526 25.8781C11.4562 24.093 15.3124 24.5339 16.9154 27.2988C17.6244 28.5217 17.5415 30.0486 16.7039 31.1875L15.58 32.7161L14.7094 32.036C14.4824 31.8587 14.1528 31.9086 13.9884 32.1451C13.8524 32.3409 13.8728 32.6052 14.0371 32.7777L18.0585 36.9999Z" fill="#8247E5"/>
</g>
<defs>
<clipPath id="clip0_11076_4783">
<rect width="37" height="37" fill="white"/>
</clipPath>
</defs>
</svg>
